{"glyphs":{"0":{"ha":1389,"x_min":0,"x_max":1389,"o":"m 174 521 l 347 521 l 347 1389 l 174 1389 l 174 521 m 868 347 l 868 521 l 347 521 l 347 347 l 868 347 m 868 1389 l 868 1563 l 347 1563 l 347 1389 l 868 1389 m 1042 1389 l 868 1389 l 868 521 l 1042 521 l 1042 1389 m 1389 174 l 1215 174 l 1215 0 l 347 0 l 347 174 l 174 174 l 174 347 l 0 347 l 0 1389 l 174 1389 l 174 1563 l 347 1563 l 347 1736 l 1042 1736 l 1042 1563 l 1215 1563 l 1215 1389 l 1389 1389 l 1389 174 m 521 1042 l 521 868 l 694 868 l 694 1042 l 521 1042 z "},"1":{"ha":868,"x_min":0,"x_max":868,"o":"m 174 1215 l 347 1215 l 347 347 l 521 347 l 521 1563 l 347 1563 l 347 1389 l 174 1389 l 174 1215 m 694 1736 l 694 1563 l 868 1563 l 868 0 l 347 0 l 347 174 l 174 174 l 174 1042 l 0 1042 l 0 1389 l 174 1389 l 174 1563 l 347 1563 l 347 1736 l 694 1736 z "},"2":{"ha":1389,"x_min":0,"x_max":1389,"o":"m 868 1389 l 868 1563 l 174 1563 l 174 1389 l 868 1389 m 868 1042 l 1042 1042 l 1042 1389 l 868 1389 l 868 1042 m 694 868 l 868 868 l 868 1042 l 694 1042 l 694 868 m 694 694 l 694 868 l 347 868 l 347 694 l 694 694 m 1042 347 l 1042 521 l 347 521 l 347 694 l 174 694 l 174 347 l 1042 347 m 0 1215 l 0 1563 l 174 1563 l 174 1736 l 1042 1736 l 1042 1563 l 1215 1563 l 1215 1389 l 1389 1389 l 1389 1042 l 1215 1042 l 1215 868 l 1042 868 l 1042 694 l 1215 694 l 1215 521 l 1389 521 l 1389 0 l 174 0 l 174 174 l 0 174 l 0 694 l 174 694 l 174 868 l 347 868 l 347 1215 l 0 1215 z "},"3":{"ha":1389,"x_min":0,"x_max":1389,"o":"m 868 1389 l 868 1563 l 174 1563 l 174 1389 l 868 1389 m 868 1042 l 1042 1042 l 1042 1389 l 868 1389 l 868 1042 m 868 521 l 1042 521 l 1042 868 l 868 868 l 868 521 m 174 521 l 174 347 l 868 347 l 868 521 l 174 521 m 347 694 l 347 1042 l 174 1042 l 174 1215 l 0 1215 l 0 1563 l 174 1563 l 174 1736 l 1042 1736 l 1042 1563 l 1215 1563 l 1215 1389 l 1389 1389 l 1389 1042 l 1215 1042 l 1215 868 l 1389 868 l 1389 347 l 1215 347 l 1215 174 l 1042 174 l 1042 0 l 174 0 l 174 174 l 0 174 l 0 521 l 174 521 l 174 694 l 347 694 m 521 868 l 868 868 l 868 1042 l 521 1042 l 521 868 z "},"4":{"ha":1389,"x_min":0,"x_max":1389,"o":"m 868 868 l 868 347 l 1042 347 l 1042 1563 l 868 1563 l 868 1042 l 347 1042 l 347 1563 l 174 1563 l 174 868 l 868 868 m 1215 1736 l 1215 1563 l 1389 1563 l 1389 0 l 868 0 l 868 174 l 694 174 l 694 521 l 174 521 l 174 694 l 0 694 l 0 1563 l 174 1563 l 174 1736 l 521 1736 l 521 1563 l 868 1563 l 868 1736 l 1215 1736 z "},"5":{"ha":1389,"x_min":0,"x_max":1389,"o":"m 868 347 l 868 521 l 174 521 l 174 347 l 868 347 m 1042 521 l 1042 868 l 868 868 l 868 521 l 1042 521 m 1042 1389 l 1042 1563 l 174 1563 l 174 868 l 868 868 l 868 1042 l 347 1042 l 347 1389 l 1042 1389 m 1389 1215 l 1042 1215 l 1042 1042 l 1215 1042 l 1215 868 l 1389 868 l 1389 347 l 1215 347 l 1215 174 l 1042 174 l 1042 0 l 174 0 l 174 174 l 0 174 l 0 521 l 174 521 l 174 694 l 0 694 l 0 1736 l 1215 1736 l 1215 1563 l 1389 1563 l 1389 1215 z "},"6":{"ha":1389,"x_min":0,"x_max":1389,"o":"m 868 347 l 868 521 l 347 521 l 347 347 l 868 347 m 1042 868 l 868 868 l 868 521 l 1042 521 l 1042 868 m 347 1389 l 174 1389 l 174 521 l 347 521 l 347 868 l 868 868 l 868 1042 l 347 1042 l 347 1389 m 868 1389 l 868 1563 l 347 1563 l 347 1389 l 868 1389 m 1215 1215 l 868 1215 l 868 1042 l 1215 1042 l 1215 868 l 1389 868 l 1389 347 l 1215 347 l 1215 174 l 1042 174 l 1042 0 l 347 0 l 347 174 l 174 174 l 174 347 l 0 347 l 0 1389 l 174 1389 l 174 1563 l 347 1563 l 347 1736 l 1042 1736 l 1042 1563 l 1215 1563 l 1215 1215 z "},"7":{"ha":1215,"x_min":-174,"x_max":1215,"o":"m 694 1215 l 868 1215 l 868 1563 l 0 1563 l 0 1389 l 694 1389 l 694 1215 m 521 1042 l 694 1042 l 694 1215 l 521 1215 l 521 1042 m 347 694 l 521 694 l 521 1042 l 347 1042 l 347 694 m 174 347 l 347 347 l 347 694 l 174 694 l 174 347 m 694 0 l 174 0 l 174 174 l 0 174 l 0 694 l 174 694 l 174 1042 l 347 1042 l 347 1215 l -174 1215 l -174 1563 l 0 1563 l 0 1736 l 1042 1736 l 1042 1563 l 1215 1563 l 1215 1042 l 1042 1042 l 1042 868 l 868 868 l 868 521 l 694 521 l 694 0 z "},"8":{"ha":1389,"x_min":0,"x_max":1389,"o":"m 868 347 l 868 521 l 347 521 l 347 347 l 868 347 m 1042 868 l 868 868 l 868 521 l 1042 521 l 1042 868 m 347 868 l 174 868 l 174 521 l 347 521 l 347 868 m 868 1042 l 347 1042 l 347 868 l 868 868 l 868 1042 m 1042 1389 l 868 1389 l 868 1042 l 1042 1042 l 1042 1389 m 347 1563 l 347 1389 l 868 1389 l 868 1563 l 347 1563 m 174 1389 l 174 1042 l 347 1042 l 347 1389 l 174 1389 m 1389 347 l 1215 347 l 1215 174 l 1042 174 l 1042 0 l 347 0 l 347 174 l 174 174 l 174 347 l 0 347 l 0 1389 l 174 1389 l 174 1563 l 347 1563 l 347 1736 l 1042 1736 l 1042 1563 l 1215 1563 l 1215 1389 l 1389 1389 l 1389 1042 l 1215 1042 l 1215 868 l 1389 868 l 1389 347 z "},"9":{"ha":1389,"x_min":0,"x_max":1389,"o":"m 868 1389 l 868 1563 l 347 1563 l 347 1389 l 868 1389 m 174 1042 l 347 1042 l 347 1389 l 174 1389 l 174 1042 m 868 521 l 347 521 l 347 347 l 868 347 l 868 521 m 868 521 l 1042 521 l 1042 1389 l 868 1389 l 868 1042 l 347 1042 l 347 868 l 868 868 l 868 521 m 347 174 l 174 174 l 174 521 l 347 521 l 347 694 l 174 694 l 174 868 l 0 868 l 0 1389 l 174 1389 l 174 1563 l 347 1563 l 347 1736 l 1042 1736 l 1042 1563 l 1215 1563 l 1215 1389 l 1389 1389 l 1389 347 l 1215 347 l 1215 174 l 1042 174 l 1042 0 l 347 0 l 347 174 z "}," ":{"ha":694,"x_min":0,"x_max":0,"o":""},"!":{"ha":694,"x_min":0,"x_max":694,"o":"m 174 694 l 347 694 l 347 1563 l 174 1563 l 174 694 m 347 347 l 347 521 l 174 521 l 174 347 l 347 347 m 521 1736 l 521 1563 l 694 1563 l 694 0 l 174 0 l 174 174 l 0 174 l 0 1563 l 174 1563 l 174 1736 l 521 1736 z "},"\"":{"ha":1042,"x_min":0,"x_max":1042,"o":"m 521 1215 l 694 1215 l 694 1563 l 521 1563 l 521 1215 m 174 1215 l 347 1215 l 347 1563 l 174 1563 l 174 1215 m 1042 868 l 174 868 l 174 1042 l 0 1042 l 0 1563 l 174 1563 l 174 1736 l 868 1736 l 868 1563 l 1042 1563 l 1042 868 z "},"#":{"ha":1389,"x_min":0,"x_max":1389,"o":"m 1042 868 l 1042 1042 l 868 1042 l 868 1215 l 694 1215 l 694 1042 l 521 1042 l 521 1215 l 347 1215 l 347 1042 l 174 1042 l 174 868 l 347 868 l 347 694 l 174 694 l 174 521 l 347 521 l 347 347 l 521 347 l 521 521 l 694 521 l 694 347 l 868 347 l 868 521 l 1042 521 l 1042 694 l 868 694 l 868 868 l 1042 868 m 1389 347 l 1215 347 l 1215 174 l 1042 174 l 1042 0 l 347 0 l 347 174 l 174 174 l 174 347 l 0 347 l 0 1042 l 174 1042 l 174 1215 l 347 1215 l 347 1389 l 1042 1389 l 1042 1215 l 1215 1215 l 1215 1042 l 1389 1042 l 1389 347 m 521 868 l 694 868 l 694 694 l 521 694 l 521 868 z "},"$":{"ha":1389,"x_min":0,"x_max":1389,"o":"m 347 1042 l 347 1389 l 174 1389 l 174 1042 l 347 1042 m 868 521 l 1042 521 l 1042 868 l 868 868 l 868 521 m 521 347 l 521 174 l 694 174 l 694 347 l 868 347 l 868 521 l 694 521 l 694 868 l 868 868 l 868 1042 l 694 1042 l 694 1389 l 1042 1389 l 1042 1563 l 694 1563 l 694 1736 l 521 1736 l 521 1563 l 347 1563 l 347 1389 l 521 1389 l 521 1042 l 347 1042 l 347 868 l 521 868 l 521 521 l 174 521 l 174 347 l 521 347 m 868 0 l 868 -174 l 521 -174 l 521 0 l 174 0 l 174 174 l 0 174 l 0 521 l 174 521 l 174 694 l 0 694 l 0 1389 l 174 1389 l 174 1563 l 347 1563 l 347 1736 l 521 1736 l 521 1910 l 868 1910 l 868 1736 l 1215 1736 l 1215 1563 l 1389 1563 l 1389 1042 l 1215 1042 l 1215 868 l 1389 868 l 1389 174 l 1215 174 l 1215 0 l 868 0 z "},"&":{"ha":1389,"x_min":0,"x_max":1389,"o":"m 1389 0 l 347 0 l 347 174 l 174 174 l 174 347 l 0 347 l 0 1389 l 174 1389 l 174 1563 l 347 1563 l 347 1736 l 868 1736 l 868 1563 l 1042 1563 l 1042 1215 l 1215 1215 l 1215 1042 l 1389 1042 l 1389 694 l 1215 694 l 1215 521 l 1389 521 l 1389 0 m 694 1389 l 694 1563 l 347 1563 l 347 1389 l 694 1389 m 1042 868 l 1042 1042 l 868 1042 l 868 1215 l 694 1215 l 694 1042 l 347 1042 l 347 868 l 694 868 l 694 521 l 868 521 l 868 868 l 1042 868 m 347 1042 l 347 1389 l 174 1389 l 174 1042 l 347 1042 m 1042 347 l 1042 521 l 868 521 l 868 347 l 1042 347 m 347 521 l 347 868 l 174 868 l 174 521 l 347 521 m 694 347 l 694 521 l 347 521 l 347 347 l 694 347 z "},"'":{"ha":694,"x_min":0,"x_max":694,"o":"m 174 1215 l 347 1215 l 347 1563 l 174 1563 l 174 1215 m 694 868 l 174 868 l 174 1042 l 0 1042 l 0 1563 l 174 1563 l 174 1736 l 521 1736 l 521 1563 l 694 1563 l 694 868 z "},"(":{"ha":868,"x_min":0,"x_max":868,"o":"m 521 521 l 347 521 l 347 347 l 521 347 l 521 521 m 347 1389 l 174 1389 l 174 521 l 347 521 l 347 1389 m 347 1389 l 521 1389 l 521 1563 l 347 1563 l 347 1389 m 868 1215 l 694 1215 l 694 521 l 868 521 l 868 0 l 347 0 l 347 174 l 174 174 l 174 347 l 0 347 l 0 1389 l 174 1389 l 174 1563 l 347 1563 l 347 1736 l 694 1736 l 694 1563 l 868 1563 l 868 1215 z "},")":{"ha":868,"x_min":0,"x_max":868,"o":"m 347 1389 l 347 1563 l 174 1563 l 174 1389 l 347 1389 m 347 347 l 347 521 l 174 521 l 174 347 l 347 347 m 521 521 l 521 1389 l 347 1389 l 347 521 l 521 521 m 868 347 l 694 347 l 694 174 l 521 174 l 521 0 l 174 0 l 174 174 l 0 174 l 0 521 l 174 521 l 174 1215 l 0 1215 l 0 1563 l 174 1563 l 174 1736 l 521 1736 l 521 1563 l 694 1563 l 694 1389 l 868 1389 l 868 347 z "},"*":{"ha":1389,"x_min":0,"x_max":1389,"o":"m 174 868 l 347 868 l 347 1042 l 174 1042 l 174 868 m 347 521 l 347 694 l 174 694 l 174 521 l 347 521 m 1042 694 l 868 694 l 868 521 l 1042 521 l 1042 694 m 868 1042 l 868 868 l 1042 868 l 1042 1042 l 868 1042 m 694 1215 l 521 1215 l 521 868 l 347 868 l 347 694 l 521 694 l 521 347 l 694 347 l 694 694 l 868 694 l 868 868 l 694 868 l 694 1215 m 1042 174 l 1042 0 l 521 0 l 521 174 l 174 174 l 174 347 l 0 347 l 0 1042 l 174 1042 l 174 1215 l 521 1215 l 521 1389 l 868 1389 l 868 1215 l 1215 1215 l 1215 1042 l 1389 1042 l 1389 347 l 1215 347 l 1215 174 l 1042 174 z "},"+":{"ha":1042,"x_min":0,"x_max":1042,"o":"m 521 868 l 694 868 l 694 1042 l 521 1042 l 521 1215 l 347 1215 l 347 1042 l 174 1042 l 174 868 l 347 868 l 347 694 l 521 694 l 521 868 m 1042 694 l 868 694 l 868 521 l 694 521 l 694 347 l 347 347 l 347 521 l 174 521 l 174 694 l 0 694 l 0 1042 l 174 1042 l 174 1215 l 347 1215 l 347 1389 l 694 1389 l 694 1215 l 868 1215 l 868 1042 l 1042 1042 l 1042 694 z "},",":{"ha":694,"x_min":-174,"x_max":694,"o":"m 347 174 l 347 521 l 174 521 l 174 174 l 347 174 m 0 0 l 174 0 l 174 174 l 0 174 l 0 0 m 347 -174 l 347 -347 l 0 -347 l 0 -174 l -174 -174 l -174 174 l 0 174 l 0 521 l 174 521 l 174 694 l 521 694 l 521 521 l 694 521 l 694 0 l 521 0 l 521 -174 l 347 -174 z "},"-":{"ha":1042,"x_min":0,"x_max":1042,"o":"m 694 868 l 694 1042 l 174 1042 l 174 868 l 694 868 m 1042 521 l 174 521 l 174 694 l 0 694 l 0 1042 l 174 1042 l 174 1215 l 868 1215 l 868 1042 l 1042 1042 l 1042 521 z "},"‐":{"ha":1042,"x_min":0,"x_max":1042,"o":"m 694 868 l 694 1042 l 174 1042 l 174 868 l 694 868 m 1042 521 l 174 521 l 174 694 l 0 694 l 0 1042 l 174 1042 l 174 1215 l 868 1215 l 868 1042 l 1042 1042 l 1042 521 z "},".":{"ha":694,"x_min":0,"x_max":694,"o":"m 347 347 l 347 521 l 174 521 l 174 347 l 347 347 m 694 0 l 174 0 l 174 174 l 0 174 l 0 521 l 174 521 l 174 694 l 521 694 l 521 521 l 694 521 l 694 0 z "},"/":{"ha":1215,"x_min":0,"x_max":1215,"o":"m 694 1389 l 868 1389 l 868 1736 l 694 1736 l 694 1389 m 521 1042 l 694 1042 l 694 1389 l 521 1389 l 521 1042 m 347 694 l 521 694 l 521 1042 l 347 1042 l 347 694 m 174 694 l 174 347 l 347 347 l 347 694 l 174 694 m 1215 1215 l 1042 1215 l 1042 868 l 868 868 l 868 521 l 694 521 l 694 0 l 174 0 l 174 174 l 0 174 l 0 694 l 174 694 l 174 1042 l 347 1042 l 347 1389 l 521 1389 l 521 1736 l 694 1736 l 694 1910 l 1042 1910 l 1042 1736 l 1215 1736 l 1215 1215 z "},":":{"ha":694,"x_min":0,"x_max":694,"o":"m 347 694 l 174 694 l 174 521 l 347 521 l 347 694 m 347 868 l 347 1042 l 174 1042 l 174 868 l 347 868 m 521 1042 l 694 1042 l 694 174 l 174 174 l 174 347 l 0 347 l 0 1042 l 174 1042 l 174 1215 l 521 1215 l 521 1042 z "},";":{"ha":694,"x_min":-174,"x_max":694,"o":"m 0 0 l 174 0 l 174 174 l 0 174 l 0 0 m 347 521 l 174 521 l 174 174 l 347 174 l 347 521 m 347 694 l 347 868 l 174 868 l 174 694 l 347 694 m 521 868 l 694 868 l 694 0 l 521 0 l 521 -174 l 347 -174 l 347 -347 l 0 -347 l 0 -174 l -174 -174 l -174 174 l 0 174 l 0 868 l 174 868 l 174 1042 l 521 1042 l 521 868 z "},"<":{"ha":1042,"x_min":0,"x_max":1042,"o":"m 521 1042 l 694 1042 l 694 1215 l 521 1215 l 521 1042 m 347 694 l 347 868 l 174 868 l 174 694 l 347 694 m 347 868 l 521 868 l 521 1042 l 347 1042 l 347 868 m 521 521 l 521 694 l 347 694 l 347 521 l 521 521 m 521 347 l 694 347 l 694 521 l 521 521 l 521 347 m 868 868 l 868 521 l 1042 521 l 1042 0 l 521 0 l 521 174 l 347 174 l 347 347 l 174 347 l 174 521 l 0 521 l 0 868 l 174 868 l 174 1042 l 347 1042 l 347 1215 l 521 1215 l 521 1389 l 868 1389 l 868 1215 l 1042 1215 l 1042 868 l 868 868 z "},"=":{"ha":1042,"x_min":0,"x_max":1042,"o":"m 694 868 l 174 868 l 174 694 l 694 694 l 694 868 m 694 1042 l 694 1215 l 174 1215 l 174 1042 l 694 1042 m 868 1215 l 1042 1215 l 1042 347 l 174 347 l 174 521 l 0 521 l 0 1215 l 174 1215 l 174 1389 l 868 1389 l 868 1215 z "},">":{"ha":1042,"x_min":0,"x_max":1042,"o":"m 347 1042 l 347 1215 l 174 1215 l 174 1042 l 347 1042 m 521 694 l 694 694 l 694 868 l 521 868 l 521 694 m 521 868 l 521 1042 l 347 1042 l 347 868 l 521 868 m 347 521 l 521 521 l 521 694 l 347 694 l 347 521 m 347 347 l 347 521 l 174 521 l 174 347 l 347 347 m 1042 521 l 868 521 l 868 347 l 694 347 l 694 174 l 521 174 l 521 0 l 174 0 l 174 174 l 0 174 l 0 521 l 174 521 l 174 868 l 0 868 l 0 1215 l 174 1215 l 174 1389 l 521 1389 l 521 1215 l 694 1215 l 694 1042 l 868 1042 l 868 868 l 1042 868 l 1042 521 z "},"?":{"ha":1563,"x_min":0,"x_max":1563,"o":"m 1042 1389 l 1042 1563 l 347 1563 l 347 1389 l 1042 1389 m 174 1215 l 347 1215 l 347 1389 l 174 1389 l 174 1215 m 1042 1042 l 1215 1042 l 1215 1389 l 1042 1389 l 1042 1042 m 868 1042 l 868 868 l 1042 868 l 1042 1042 l 868 1042 m 694 694 l 868 694 l 868 868 l 694 868 l 694 694 m 694 347 l 868 347 l 868 521 l 694 521 l 694 347 m 1563 868 l 1389 868 l 1389 694 l 1215 694 l 1215 0 l 694 0 l 694 174 l 521 174 l 521 868 l 174 868 l 174 1042 l 0 1042 l 0 1389 l 174 1389 l 174 1563 l 347 1563 l 347 1736 l 1215 1736 l 1215 1563 l 1389 1563 l 1389 1389 l 1563 1389 l 1563 868 z "},"@":{"ha":1736,"x_min":0,"x_max":1736,"o":"m 694 694 l 868 694 l 868 868 l 694 868 l 694 694 m 868 521 l 1389 521 l 1389 1215 l 1215 1215 l 1215 1042 l 868 1042 l 868 868 l 1215 868 l 1215 694 l 868 694 l 868 521 m 521 347 l 521 174 l 1389 174 l 1389 347 l 521 347 m 521 521 l 347 521 l 347 347 l 521 347 l 521 521 m 347 1042 l 174 1042 l 174 521 l 347 521 l 347 1042 m 521 1215 l 347 1215 l 347 1042 l 521 1042 l 521 1215 m 521 1389 l 521 1215 l 1215 1215 l 1215 1389 l 521 1389 m 1736 -174 l 521 -174 l 521 0 l 347 0 l 347 174 l 174 174 l 174 347 l 0 347 l 0 1042 l 174 1042 l 174 1215 l 347 1215 l 347 1389 l 521 1389 l 521 1563 l 1389 1563 l 1389 1389 l 1563 1389 l 1563 1215 l 1736 1215 l 1736 -174 z "},"A":{"ha":1389,"x_min":0,"x_max":1389,"o":"m 868 1389 l 868 1563 l 347 1563 l 347 1389 l 868 1389 m 1042 347 l 1042 1389 l 868 1389 l 868 1042 l 347 1042 l 347 1389 l 174 1389 l 174 347 l 347 347 l 347 868 l 868 868 l 868 347 l 1042 347 m 694 174 l 694 0 l 174 0 l 174 174 l 0 174 l 0 1389 l 174 1389 l 174 1563 l 347 1563 l 347 1736 l 1042 1736 l 1042 1563 l 1215 1563 l 1215 1389 l 1389 1389 l 1389 0 l 868 0 l 868 174 l 694 174 z "},"B":{"ha":1389,"x_min":0,"x_max":1389,"o":"m 1042 1042 l 1042 1389 l 868 1389 l 868 1042 l 1042 1042 m 1042 521 l 1042 868 l 868 868 l 868 521 l 1042 521 m 868 347 l 868 521 l 347 521 l 347 868 l 868 868 l 868 1042 l 347 1042 l 347 1389 l 868 1389 l 868 1563 l 174 1563 l 174 347 l 868 347 m 1215 174 l 1215 0 l 174 0 l 174 174 l 0 174 l 0 1563 l 174 1563 l 174 1736 l 1042 1736 l 1042 1563 l 1215 1563 l 1215 1389 l 1389 1389 l 1389 174 l 1215 174 z "},"C":{"ha":1389,"x_min":0,"x_max":1389,"o":"m 1042 1389 l 1042 1563 l 347 1563 l 347 1389 l 1042 1389 m 347 521 l 347 1389 l 174 1389 l 174 521 l 347 521 m 1042 347 l 1042 521 l 347 521 l 347 347 l 1042 347 m 1215 521 l 1389 521 l 1389 0 l 347 0 l 347 174 l 174 174 l 174 347 l 0 347 l 0 1389 l 174 1389 l 174 1563 l 347 1563 l 347 1736 l 1215 1736 l 1215 1563 l 1389 1563 l 1389 1042 l 868 1042 l 868 694 l 1215 694 l 1215 521 z "},"D":{"ha":1389,"x_min":0,"x_max":1389,"o":"m 1042 521 l 1042 1389 l 868 1389 l 868 521 l 1042 521 m 868 347 l 868 521 l 347 521 l 347 1389 l 868 1389 l 868 1563 l 174 1563 l 174 347 l 868 347 m 1215 174 l 1215 0 l 174 0 l 174 174 l 0 174 l 0 1563 l 174 1563 l 174 1736 l 1042 1736 l 1042 1563 l 1215 1563 l 1215 1389 l 1389 1389 l 1389 174 l 1215 174 z "},"E":{"ha":1215,"x_min":0,"x_max":1215,"o":"m 868 347 l 868 521 l 347 521 l 347 868 l 868 868 l 868 1042 l 347 1042 l 347 1389 l 868 1389 l 868 1563 l 174 1563 l 174 347 l 868 347 m 1042 694 l 1042 521 l 1215 521 l 1215 0 l 174 0 l 174 174 l 0 174 l 0 1563 l 174 1563 l 174 1736 l 1042 1736 l 1042 1563 l 1215 1563 l 1215 1215 l 1042 1215 l 1042 1042 l 1215 1042 l 1215 694 l 1042 694 z "},"F":{"ha":1215,"x_min":0,"x_max":1215,"o":"m 868 868 l 868 1042 l 347 1042 l 347 1389 l 868 1389 l 868 1563 l 174 1563 l 174 347 l 347 347 l 347 868 l 868 868 m 1042 1215 l 1042 1042 l 1215 1042 l 1215 521 l 694 521 l 694 0 l 174 0 l 174 174 l 0 174 l 0 1563 l 174 1563 l 174 1736 l 1042 1736 l 1042 1563 l 1215 1563 l 1215 1215 l 1042 1215 z "},"G":{"ha":1389,"x_min":0,"x_max":1389,"o":"m 1389 174 l 1215 174 l 1215 0 l 347 0 l 347 174 l 174 174 l 174 347 l 0 347 l 0 1389 l 174 1389 l 174 1563 l 347 1563 l 347 1736 l 1215 1736 l 1215 1563 l 1389 1563 l 1389 174 m 1042 1389 l 1042 1563 l 347 1563 l 347 1389 l 1042 1389 m 347 521 l 347 1389 l 174 1389 l 174 521 l 347 521 m 868 347 l 868 521 l 347 521 l 347 347 l 868 347 m 868 521 l 1042 521 l 1042 1042 l 694 1042 l 694 868 l 868 868 l 868 521 z "},"H":{"ha":1389,"x_min":0,"x_max":1389,"o":"m 868 347 l 1042 347 l 1042 1563 l 868 1563 l 868 1042 l 347 1042 l 347 1563 l 174 1563 l 174 347 l 347 347 l 347 868 l 868 868 l 868 347 m 694 174 l 694 0 l 174 0 l 174 174 l 0 174 l 0 1563 l 174 1563 l 174 1736 l 521 1736 l 521 1563 l 868 1563 l 868 1736 l 1215 1736 l 1215 1563 l 1389 1563 l 1389 0 l 868 0 l 868 174 l 694 174 z "},"I":{"ha":694,"x_min":0,"x_max":694,"o":"m 174 347 l 347 347 l 347 1563 l 174 1563 l 174 347 m 521 1563 l 694 1563 l 694 0 l 174 0 l 174 174 l 0 174 l 0 1563 l 174 1563 l 174 1736 l 521 1736 l 521 1563 z "},"J":{"ha":1389,"x_min":0,"x_max":1389,"o":"m 868 521 l 1042 521 l 1042 1563 l 868 1563 l 868 521 m 347 521 l 347 347 l 868 347 l 868 521 l 347 521 m 174 521 l 347 521 l 347 868 l 174 868 l 174 521 m 347 174 l 174 174 l 174 347 l 0 347 l 0 868 l 174 868 l 174 1042 l 521 1042 l 521 868 l 694 868 l 694 1563 l 868 1563 l 868 1736 l 1215 1736 l 1215 1563 l 1389 1563 l 1389 174 l 1215 174 l 1215 0 l 347 0 l 347 174 z "},"K":{"ha":1389,"x_min":0,"x_max":1389,"o":"m 868 868 l 868 1042 l 347 1042 l 347 1563 l 174 1563 l 174 347 l 347 347 l 347 868 l 868 868 m 1042 868 l 868 868 l 868 347 l 1042 347 l 1042 868 m 868 1042 l 1042 1042 l 1042 1563 l 868 1563 l 868 1042 m 694 174 l 694 0 l 174 0 l 174 174 l 0 174 l 0 1563 l 174 1563 l 174 1736 l 521 1736 l 521 1563 l 868 1563 l 868 1736 l 1215 1736 l 1215 1563 l 1389 1563 l 1389 0 l 868 0 l 868 174 l 694 174 z "},"L":{"ha":1215,"x_min":0,"x_max":1215,"o":"m 868 347 l 868 521 l 347 521 l 347 1563 l 174 1563 l 174 347 l 868 347 m 1215 0 l 174 0 l 174 174 l 0 174 l 0 1563 l 174 1563 l 174 1736 l 521 1736 l 521 1563 l 694 1563 l 694 694 l 1042 694 l 1042 521 l 1215 521 l 1215 0 z "},"M":{"ha":1736,"x_min":0,"x_max":1736,"o":"m 521 1215 l 521 1389 l 347 1389 l 347 1563 l 174 1563 l 174 347 l 347 347 l 347 1215 l 521 1215 m 1389 347 l 1389 1563 l 1215 1563 l 1215 1389 l 1042 1389 l 1042 1215 l 1215 1215 l 1215 347 l 1389 347 m 694 1042 l 694 1215 l 521 1215 l 521 1042 l 694 1042 m 868 1215 l 868 1042 l 1042 1042 l 1042 1215 l 868 1215 m 694 1042 l 694 868 l 868 868 l 868 1042 l 694 1042 m 1042 521 l 694 521 l 694 0 l 174 0 l 174 174 l 0 174 l 0 1563 l 174 1563 l 174 1736 l 521 1736 l 521 1563 l 694 1563 l 694 1389 l 1042 1389 l 1042 1563 l 1215 1563 l 1215 1736 l 1563 1736 l 1563 1563 l 1736 1563 l 1736 0 l 1215 0 l 1215 174 l 1042 174 l 1042 521 z "},"N":{"ha":1389,"x_min":0,"x_max":1389,"o":"m 521 1215 l 521 1389 l 347 1389 l 347 1563 l 174 1563 l 174 347 l 347 347 l 347 1215 l 521 1215 m 694 1042 l 694 1215 l 521 1215 l 521 1042 l 694 1042 m 868 347 l 1042 347 l 1042 1563 l 868 1563 l 868 1042 l 694 1042 l 694 868 l 868 868 l 868 347 m 694 174 l 694 0 l 174 0 l 174 174 l 0 174 l 0 1563 l 174 1563 l 174 1736 l 521 1736 l 521 1563 l 868 1563 l 868 1736 l 1215 1736 l 1215 1563 l 1389 1563 l 1389 0 l 868 0 l 868 174 l 694 174 z "},"O":{"ha":1389,"x_min":0,"x_max":1389,"o":"m 174 521 l 347 521 l 347 1389 l 174 1389 l 174 521 m 868 347 l 868 521 l 347 521 l 347 347 l 868 347 m 868 1389 l 868 1563 l 347 1563 l 347 1389 l 868 1389 m 1042 1389 l 868 1389 l 868 521 l 1042 521 l 1042 1389 m 1389 174 l 1215 174 l 1215 0 l 347 0 l 347 174 l 174 174 l 174 347 l 0 347 l 0 1389 l 174 1389 l 174 1563 l 347 1563 l 347 1736 l 1042 1736 l 1042 1563 l 1215 1563 l 1215 1389 l 1389 1389 l 1389 174 z "},"P":{"ha":1389,"x_min":0,"x_max":1389,"o":"m 868 868 l 868 1042 l 347 1042 l 347 1389 l 868 1389 l 868 1563 l 174 1563 l 174 347 l 347 347 l 347 868 l 868 868 m 868 1042 l 1042 1042 l 1042 1389 l 868 1389 l 868 1042 m 1215 1389 l 1389 1389 l 1389 868 l 1215 868 l 1215 694 l 1042 694 l 1042 521 l 694 521 l 694 0 l 174 0 l 174 174 l 0 174 l 0 1563 l 174 1563 l 174 1736 l 1042 1736 l 1042 1563 l 1215 1563 l 1215 1389 z "},"Q":{"ha":1389,"x_min":0,"x_max":1389,"o":"m 174 521 l 347 521 l 347 1389 l 174 1389 l 174 521 m 868 1389 l 868 1563 l 347 1563 l 347 1389 l 868 1389 m 1042 1389 l 868 1389 l 868 521 l 1042 521 l 1042 1389 m 868 347 l 868 174 l 1042 174 l 1042 347 l 868 347 m 347 521 l 347 347 l 868 347 l 868 521 l 347 521 m 1215 521 l 1215 347 l 1389 347 l 1389 -174 l 868 -174 l 868 0 l 347 0 l 347 174 l 174 174 l 174 347 l 0 347 l 0 1389 l 174 1389 l 174 1563 l 347 1563 l 347 1736 l 1042 1736 l 1042 1563 l 1215 1563 l 1215 1389 l 1389 1389 l 1389 521 l 1215 521 z "},"R":{"ha":1389,"x_min":0,"x_max":1389,"o":"m 868 1389 l 868 1042 l 1042 1042 l 1042 1389 l 868 1389 m 174 347 l 347 347 l 347 868 l 868 868 l 868 1042 l 347 1042 l 347 1389 l 868 1389 l 868 1563 l 174 1563 l 174 347 m 1389 1042 l 1215 1042 l 1215 868 l 1389 868 l 1389 0 l 868 0 l 868 174 l 694 174 l 694 0 l 174 0 l 174 174 l 0 174 l 0 1563 l 174 1563 l 174 1736 l 1042 1736 l 1042 1563 l 1215 1563 l 1215 1389 l 1389 1389 l 1389 1042 m 1042 868 l 868 868 l 868 347 l 1042 347 l 1042 868 z "},"S":{"ha":1389,"x_min":0,"x_max":1389,"o":"m 347 1042 l 347 1389 l 174 1389 l 174 1042 l 347 1042 m 868 868 l 868 1042 l 347 1042 l 347 868 l 868 868 m 868 521 l 1042 521 l 1042 868 l 868 868 l 868 521 m 1042 1389 l 1042 1563 l 347 1563 l 347 1389 l 1042 1389 m 174 521 l 174 347 l 868 347 l 868 521 l 174 521 m 174 868 l 0 868 l 0 1389 l 174 1389 l 174 1563 l 347 1563 l 347 1736 l 1215 1736 l 1215 1563 l 1389 1563 l 1389 1042 l 1215 1042 l 1215 868 l 1389 868 l 1389 174 l 1215 174 l 1215 0 l 174 0 l 174 174 l 0 174 l 0 521 l 174 521 l 174 868 z "},"T":{"ha":1389,"x_min":0,"x_max":1389,"o":"m 1042 1389 l 1042 1563 l 174 1563 l 174 1389 l 521 1389 l 521 347 l 694 347 l 694 1389 l 1042 1389 m 1389 1042 l 1042 1042 l 1042 0 l 521 0 l 521 174 l 347 174 l 347 1042 l 174 1042 l 174 1215 l 0 1215 l 0 1563 l 174 1563 l 174 1736 l 1215 1736 l 1215 1563 l 1389 1563 l 1389 1042 z "},"U":{"ha":1389,"x_min":0,"x_max":1389,"o":"m 174 521 l 347 521 l 347 1563 l 174 1563 l 174 521 m 868 347 l 868 521 l 347 521 l 347 347 l 868 347 m 1042 521 l 1042 1563 l 868 1563 l 868 521 l 1042 521 m 1389 174 l 1215 174 l 1215 0 l 347 0 l 347 174 l 174 174 l 174 347 l 0 347 l 0 1563 l 174 1563 l 174 1736 l 521 1736 l 521 1563 l 868 1563 l 868 1736 l 1215 1736 l 1215 1563 l 1389 1563 l 1389 174 z "},"V":{"ha":1563,"x_min":0,"x_max":1563,"o":"m 347 1042 l 347 1563 l 174 1563 l 174 1042 l 347 1042 m 521 521 l 521 1042 l 347 1042 l 347 521 l 521 521 m 1042 1563 l 1042 1042 l 1215 1042 l 1215 1563 l 1042 1563 m 868 521 l 521 521 l 521 347 l 868 347 l 868 521 m 868 1042 l 868 521 l 1042 521 l 1042 1042 l 868 1042 m 694 1215 l 868 1215 l 868 1563 l 1042 1563 l 1042 1736 l 1389 1736 l 1389 1563 l 1563 1563 l 1563 868 l 1389 868 l 1389 347 l 1215 347 l 1215 174 l 1042 174 l 1042 0 l 521 0 l 521 174 l 347 174 l 347 347 l 174 347 l 174 868 l 0 868 l 0 1563 l 174 1563 l 174 1736 l 521 1736 l 521 1563 l 694 1563 l 694 1215 z "},"W":{"ha":1736,"x_min":0,"x_max":1736,"o":"m 347 521 l 347 1563 l 174 1563 l 174 521 l 347 521 m 521 347 l 521 521 l 347 521 l 347 347 l 521 347 m 694 521 l 694 694 l 521 694 l 521 521 l 694 521 m 868 694 l 868 868 l 694 868 l 694 694 l 868 694 m 1042 521 l 1042 694 l 868 694 l 868 521 l 1042 521 m 1215 347 l 1215 521 l 1042 521 l 1042 347 l 1215 347 m 1389 1563 l 1215 1563 l 1215 521 l 1389 521 l 1389 1563 m 1736 174 l 1563 174 l 1563 0 l 1042 0 l 1042 174 l 868 174 l 868 0 l 347 0 l 347 174 l 174 174 l 174 347 l 0 347 l 0 1563 l 174 1563 l 174 1736 l 521 1736 l 521 1563 l 694 1563 l 694 1042 l 1042 1042 l 1042 1563 l 1215 1563 l 1215 1736 l 1563 1736 l 1563 1563 l 1736 1563 l 1736 174 z "},"X":{"ha":1563,"x_min":0,"x_max":1563,"o":"m 347 1215 l 347 1563 l 174 1563 l 174 1215 l 347 1215 m 521 1042 l 521 1215 l 347 1215 l 347 1042 l 521 1042 m 347 694 l 521 694 l 521 868 l 347 868 l 347 694 m 174 347 l 347 347 l 347 694 l 174 694 l 174 347 m 868 868 l 868 1042 l 521 1042 l 521 868 l 868 868 m 1042 1042 l 1042 1215 l 868 1215 l 868 1042 l 1042 1042 m 1215 1563 l 1042 1563 l 1042 1215 l 1215 1215 l 1215 1563 m 1042 694 l 1042 868 l 868 868 l 868 694 l 1042 694 m 1215 347 l 1215 694 l 1042 694 l 1042 347 l 1215 347 m 694 347 l 694 174 l 521 174 l 521 0 l 174 0 l 174 174 l 0 174 l 0 694 l 174 694 l 174 1042 l 0 1042 l 0 1563 l 174 1563 l 174 1736 l 521 1736 l 521 1563 l 694 1563 l 694 1389 l 868 1389 l 868 1563 l 1042 1563 l 1042 1736 l 1389 1736 l 1389 1563 l 1563 1563 l 1563 1042 l 1389 1042 l 1389 694 l 1563 694 l 1563 0 l 1042 0 l 1042 174 l 868 174 l 868 347 l 694 347 z "},"Y":{"ha":1736,"x_min":0,"x_max":1736,"o":"m 347 1215 l 347 1563 l 174 1563 l 174 1215 l 347 1215 m 521 1042 l 521 1215 l 347 1215 l 347 1042 l 521 1042 m 1215 1042 l 1215 1215 l 1042 1215 l 1042 1042 l 1215 1042 m 1389 1563 l 1215 1563 l 1215 1215 l 1389 1215 l 1389 1563 m 694 347 l 868 347 l 868 868 l 1042 868 l 1042 1042 l 521 1042 l 521 868 l 694 868 l 694 347 m 694 1389 l 868 1389 l 868 1215 l 1042 1215 l 1042 1563 l 1215 1563 l 1215 1736 l 1563 1736 l 1563 1563 l 1736 1563 l 1736 1042 l 1563 1042 l 1563 868 l 1389 868 l 1389 694 l 1215 694 l 1215 0 l 694 0 l 694 174 l 521 174 l 521 694 l 347 694 l 347 868 l 174 868 l 174 1042 l 0 1042 l 0 1563 l 174 1563 l 174 1736 l 521 1736 l 521 1563 l 694 1563 l 694 1389 z "},"Z":{"ha":1389,"x_min":0,"x_max":1389,"o":"m 868 1215 l 1042 1215 l 1042 1563 l 174 1563 l 174 1389 l 868 1389 l 868 1215 m 694 1042 l 868 1042 l 868 1215 l 694 1215 l 694 1042 m 521 868 l 694 868 l 694 1042 l 521 1042 l 521 868 m 347 694 l 521 694 l 521 868 l 347 868 l 347 694 m 1042 347 l 1042 521 l 347 521 l 347 694 l 174 694 l 174 347 l 1042 347 m 1389 0 l 174 0 l 174 174 l 0 174 l 0 694 l 174 694 l 174 868 l 347 868 l 347 1215 l 0 1215 l 0 1563 l 174 1563 l 174 1736 l 1215 1736 l 1215 1563 l 1389 1563 l 1389 1042 l 1215 1042 l 1215 868 l 1042 868 l 1042 694 l 1215 694 l 1215 521 l 1389 521 l 1389 0 z "},"[":{"ha":868,"x_min":0,"x_max":868,"o":"m 521 1389 l 521 1563 l 174 1563 l 174 347 l 521 347 l 521 521 l 347 521 l 347 1389 l 521 1389 m 868 1215 l 694 1215 l 694 521 l 868 521 l 868 0 l 174 0 l 174 174 l 0 174 l 0 1736 l 694 1736 l 694 1563 l 868 1563 l 868 1215 z "},"\\":{"ha":1215,"x_min":0,"x_max":1215,"o":"m 347 1389 l 347 1736 l 174 1736 l 174 1389 l 347 1389 m 521 1042 l 521 1389 l 347 1389 l 347 1042 l 521 1042 m 694 694 l 694 1042 l 521 1042 l 521 694 l 694 694 m 868 694 l 694 694 l 694 347 l 868 347 l 868 694 m 868 1042 l 1042 1042 l 1042 694 l 1215 694 l 1215 0 l 694 0 l 694 174 l 521 174 l 521 521 l 347 521 l 347 868 l 174 868 l 174 1215 l 0 1215 l 0 1736 l 174 1736 l 174 1910 l 521 1910 l 521 1736 l 694 1736 l 694 1389 l 868 1389 l 868 1042 z "},"]":{"ha":868,"x_min":0,"x_max":868,"o":"m 174 1389 l 347 1389 l 347 521 l 174 521 l 174 347 l 521 347 l 521 1563 l 174 1563 l 174 1389 m 694 1563 l 868 1563 l 868 0 l 174 0 l 174 174 l 0 174 l 0 521 l 174 521 l 174 1215 l 0 1215 l 0 1563 l 174 1563 l 174 1736 l 694 1736 l 694 1563 z "},"^":{"ha":1042,"x_min":0,"x_max":1042,"o":"m 347 1215 l 347 1389 l 174 1389 l 174 1215 l 347 1215 m 521 1389 l 521 1563 l 347 1563 l 347 1389 l 521 1389 m 694 1215 l 694 1389 l 521 1389 l 521 1215 l 694 1215 m 174 868 l 174 1042 l 0 1042 l 0 1389 l 174 1389 l 174 1563 l 347 1563 l 347 1736 l 694 1736 l 694 1563 l 868 1563 l 868 1389 l 1042 1389 l 1042 868 l 174 868 z "},"_":{"ha":1215,"x_min":0,"x_max":1215,"o":"m 868 347 l 868 521 l 174 521 l 174 347 l 868 347 m 1215 0 l 174 0 l 174 174 l 0 174 l 0 521 l 174 521 l 174 694 l 1042 694 l 1042 521 l 1215 521 l 1215 0 z "},"`":{"ha":868,"x_min":0,"x_max":868,"o":"m 347 1389 l 347 1563 l 174 1563 l 174 1389 l 347 1389 m 521 1215 l 521 1389 l 347 1389 l 347 1215 l 521 1215 m 694 1389 l 868 1389 l 868 868 l 347 868 l 347 1042 l 174 1042 l 174 1215 l 0 1215 l 0 1563 l 174 1563 l 174 1736 l 521 1736 l 521 1563 l 694 1563 l 694 1389 z "},"a":{"ha":1389,"x_min":0,"x_max":1389,"o":"m 868 1042 l 868 1215 l 347 1215 l 347 1042 l 868 1042 m 1042 347 l 1042 1042 l 868 1042 l 868 868 l 347 868 l 347 694 l 868 694 l 868 521 l 347 521 l 347 347 l 1042 347 m 347 521 l 347 694 l 174 694 l 174 521 l 347 521 m 347 174 l 174 174 l 174 347 l 0 347 l 0 694 l 174 694 l 174 868 l 347 868 l 347 1042 l 174 1042 l 174 1215 l 347 1215 l 347 1389 l 1215 1389 l 1215 1215 l 1389 1215 l 1389 0 l 347 0 l 347 174 z "},"b":{"ha":1389,"x_min":0,"x_max":1389,"o":"m 868 1042 l 868 521 l 1042 521 l 1042 1042 l 868 1042 m 347 1042 l 868 1042 l 868 1215 l 347 1215 l 347 1563 l 174 1563 l 174 347 l 868 347 l 868 521 l 347 521 l 347 1042 m 1215 347 l 1215 174 l 1042 174 l 1042 0 l 174 0 l 174 174 l 0 174 l 0 1563 l 174 1563 l 174 1736 l 521 1736 l 521 1563 l 868 1563 l 868 1389 l 1042 1389 l 1042 1215 l 1215 1215 l 1215 1042 l 1389 1042 l 1389 347 l 1215 347 z "},"c":{"ha":1215,"x_min":0,"x_max":1215,"o":"m 868 1042 l 868 1215 l 347 1215 l 347 1042 l 868 1042 m 347 521 l 347 1042 l 174 1042 l 174 521 l 347 521 m 868 347 l 868 521 l 347 521 l 347 347 l 868 347 m 1042 1215 l 1215 1215 l 1215 868 l 868 868 l 868 694 l 1042 694 l 1042 521 l 1215 521 l 1215 0 l 347 0 l 347 174 l 174 174 l 174 347 l 0 347 l 0 1042 l 174 1042 l 174 1215 l 347 1215 l 347 1389 l 1042 1389 l 1042 1215 z "},"d":{"ha":1389,"x_min":0,"x_max":1389,"o":"m 347 1042 l 174 1042 l 174 521 l 347 521 l 347 1042 m 347 1215 l 347 1042 l 868 1042 l 868 521 l 347 521 l 347 347 l 1042 347 l 1042 1563 l 868 1563 l 868 1215 l 347 1215 m 1389 0 l 347 0 l 347 174 l 174 174 l 174 347 l 0 347 l 0 1042 l 174 1042 l 174 1215 l 347 1215 l 347 1389 l 694 1389 l 694 1563 l 868 1563 l 868 1736 l 1215 1736 l 1215 1563 l 1389 1563 l 1389 0 z "},"e":{"ha":1389,"x_min":0,"x_max":1389,"o":"m 868 1042 l 868 1215 l 347 1215 l 347 1042 l 868 1042 m 1042 694 l 1042 1042 l 868 1042 l 868 868 l 347 868 l 347 1042 l 174 1042 l 174 521 l 347 521 l 347 694 l 1042 694 m 1042 347 l 1042 521 l 347 521 l 347 347 l 1042 347 m 347 0 l 347 174 l 174 174 l 174 347 l 0 347 l 0 1042 l 174 1042 l 174 1215 l 347 1215 l 347 1389 l 1042 1389 l 1042 1215 l 1215 1215 l 1215 1042 l 1389 1042 l 1389 0 l 347 0 z "},"f":{"ha":1215,"x_min":0,"x_max":1215,"o":"m 521 1389 l 347 1389 l 347 1215 l 174 1215 l 174 1042 l 347 1042 l 347 347 l 521 347 l 521 1042 l 868 1042 l 868 1215 l 521 1215 l 521 1389 m 868 1389 l 868 1563 l 521 1563 l 521 1389 l 868 1389 m 1215 694 l 868 694 l 868 0 l 347 0 l 347 174 l 174 174 l 174 868 l 0 868 l 0 1215 l 174 1215 l 174 1389 l 347 1389 l 347 1563 l 521 1563 l 521 1736 l 1042 1736 l 1042 1563 l 1215 1563 l 1215 694 z "},"g":{"ha":1389,"x_min":0,"x_max":1389,"o":"m 174 521 l 347 521 l 347 1042 l 174 1042 l 174 521 m 868 0 l 1042 0 l 1042 1215 l 347 1215 l 347 1042 l 868 1042 l 868 521 l 347 521 l 347 347 l 868 347 l 868 0 m 174 -174 l 868 -174 l 868 0 l 174 0 l 174 -174 m 1389 -174 l 1215 -174 l 1215 -347 l 1042 -347 l 1042 -521 l 174 -521 l 174 -347 l 0 -347 l 0 0 l 174 0 l 174 347 l 0 347 l 0 1042 l 174 1042 l 174 1215 l 347 1215 l 347 1389 l 1215 1389 l 1215 1215 l 1389 1215 l 1389 -174 z "},"h":{"ha":1389,"x_min":0,"x_max":1389,"o":"m 868 1042 l 868 1215 l 347 1215 l 347 1563 l 174 1563 l 174 347 l 347 347 l 347 1042 l 868 1042 m 1042 347 l 1042 1042 l 868 1042 l 868 347 l 1042 347 m 521 1563 l 694 1563 l 694 1389 l 1042 1389 l 1042 1215 l 1215 1215 l 1215 1042 l 1389 1042 l 1389 0 l 868 0 l 868 174 l 521 174 l 521 0 l 174 0 l 174 174 l 0 174 l 0 1563 l 174 1563 l 174 1736 l 521 1736 l 521 1563 z "},"i":{"ha":694,"x_min":0,"x_max":694,"o":"m 347 1215 l 174 1215 l 174 347 l 347 347 l 347 1215 m 347 1389 l 347 1563 l 174 1563 l 174 1389 l 347 1389 m 521 1563 l 694 1563 l 694 0 l 174 0 l 174 174 l 0 174 l 0 1563 l 174 1563 l 174 1736 l 521 1736 l 521 1563 z "},"j":{"ha":694,"x_min":-174,"x_max":694,"o":"m 347 1389 l 347 1563 l 174 1563 l 174 1389 l 347 1389 m 347 0 l 347 1215 l 174 1215 l 174 0 l 347 0 m 0 0 l 0 -174 l 174 -174 l 174 0 l 0 0 m 694 -174 l 521 -174 l 521 -347 l 347 -347 l 347 -521 l 0 -521 l 0 -347 l -174 -347 l -174 0 l 0 0 l 0 1563 l 174 1563 l 174 1736 l 521 1736 l 521 1563 l 694 1563 l 694 -174 z "},"k":{"ha":1389,"x_min":0,"x_max":1389,"o":"m 1042 1215 l 1042 1389 l 868 1389 l 868 1215 l 1042 1215 m 868 347 l 1042 347 l 1042 694 l 868 694 l 868 347 m 694 1215 l 694 1042 l 868 1042 l 868 1215 l 694 1215 m 694 868 l 694 694 l 868 694 l 868 868 l 694 868 m 694 868 l 694 1042 l 347 1042 l 347 1563 l 174 1563 l 174 347 l 347 347 l 347 868 l 694 868 m 1389 1042 l 1215 1042 l 1215 694 l 1389 694 l 1389 0 l 868 0 l 868 174 l 521 174 l 521 0 l 174 0 l 174 174 l 0 174 l 0 1563 l 174 1563 l 174 1736 l 521 1736 l 521 1563 l 694 1563 l 694 1389 l 868 1389 l 868 1563 l 1215 1563 l 1215 1389 l 1389 1389 l 1389 1042 z "},"l":{"ha":694,"x_min":0,"x_max":694,"o":"m 174 347 l 347 347 l 347 1563 l 174 1563 l 174 347 m 694 0 l 174 0 l 174 174 l 0 174 l 0 1563 l 174 1563 l 174 1736 l 521 1736 l 521 1563 l 694 1563 l 694 0 z "},"m":{"ha":1736,"x_min":0,"x_max":1736,"o":"m 694 1042 l 694 1215 l 174 1215 l 174 347 l 347 347 l 347 1042 l 694 1042 m 868 1042 l 694 1042 l 694 347 l 868 347 l 868 1042 m 1215 1042 l 1215 1215 l 868 1215 l 868 1042 l 1215 1042 m 1389 1042 l 1215 1042 l 1215 347 l 1389 347 l 1389 1042 m 1736 0 l 1215 0 l 1215 174 l 1042 174 l 1042 0 l 694 0 l 694 174 l 521 174 l 521 0 l 174 0 l 174 174 l 0 174 l 0 1215 l 174 1215 l 174 1389 l 1389 1389 l 1389 1215 l 1563 1215 l 1563 1042 l 1736 1042 l 1736 0 z "},"n":{"ha":1389,"x_min":0,"x_max":1389,"o":"m 868 1042 l 868 1215 l 174 1215 l 174 347 l 347 347 l 347 1042 l 868 1042 m 1042 1042 l 868 1042 l 868 347 l 1042 347 l 1042 1042 m 1389 0 l 868 0 l 868 174 l 521 174 l 521 0 l 174 0 l 174 174 l 0 174 l 0 1215 l 174 1215 l 174 1389 l 1042 1389 l 1042 1215 l 1215 1215 l 1215 1042 l 1389 1042 l 1389 0 z "},"o":{"ha":1389,"x_min":0,"x_max":1389,"o":"m 347 521 l 347 1042 l 174 1042 l 174 521 l 347 521 m 868 1042 l 868 1215 l 347 1215 l 347 1042 l 868 1042 m 868 521 l 1042 521 l 1042 1042 l 868 1042 l 868 521 m 347 347 l 868 347 l 868 521 l 347 521 l 347 347 m 1389 347 l 1215 347 l 1215 174 l 1042 174 l 1042 0 l 347 0 l 347 174 l 174 174 l 174 347 l 0 347 l 0 1042 l 174 1042 l 174 1215 l 347 1215 l 347 1389 l 1042 1389 l 1042 1215 l 1215 1215 l 1215 1042 l 1389 1042 l 1389 347 z "},"p":{"ha":1389,"x_min":0,"x_max":1389,"o":"m 1042 521 l 1042 1042 l 868 1042 l 868 521 l 1042 521 m 174 1215 l 174 -174 l 347 -174 l 347 347 l 868 347 l 868 521 l 347 521 l 347 1042 l 868 1042 l 868 1215 l 174 1215 m 694 -521 l 174 -521 l 174 -347 l 0 -347 l 0 1215 l 174 1215 l 174 1389 l 1042 1389 l 1042 1215 l 1215 1215 l 1215 1042 l 1389 1042 l 1389 347 l 1215 347 l 1215 174 l 868 174 l 868 0 l 694 0 l 694 -521 z "},"q":{"ha":1389,"x_min":0,"x_max":1389,"o":"m 174 521 l 347 521 l 347 1042 l 174 1042 l 174 521 m 1042 1215 l 347 1215 l 347 1042 l 868 1042 l 868 521 l 347 521 l 347 347 l 868 347 l 868 -174 l 1042 -174 l 1042 1215 m 1215 1215 l 1389 1215 l 1389 -521 l 868 -521 l 868 -347 l 694 -347 l 694 0 l 347 0 l 347 174 l 174 174 l 174 347 l 0 347 l 0 1042 l 174 1042 l 174 1215 l 347 1215 l 347 1389 l 1215 1389 l 1215 1215 z "},"r":{"ha":1042,"x_min":0,"x_max":1042,"o":"m 174 1042 l 174 347 l 347 347 l 347 1042 l 174 1042 m 694 1042 l 694 1215 l 347 1215 l 347 1042 l 694 1042 m 1042 868 l 694 868 l 694 0 l 174 0 l 174 174 l 0 174 l 0 1042 l 174 1042 l 174 1215 l 347 1215 l 347 1389 l 868 1389 l 868 1215 l 1042 1215 l 1042 868 z "},"s":{"ha":1389,"x_min":0,"x_max":1389,"o":"m 174 868 l 347 868 l 347 1042 l 174 1042 l 174 868 m 868 694 l 868 868 l 347 868 l 347 694 l 868 694 m 868 521 l 1042 521 l 1042 694 l 868 694 l 868 521 m 1042 1042 l 1042 1215 l 347 1215 l 347 1042 l 1042 1042 m 174 347 l 868 347 l 868 521 l 174 521 l 174 347 m 1389 347 l 1215 347 l 1215 174 l 1042 174 l 1042 0 l 174 0 l 174 174 l 0 174 l 0 521 l 174 521 l 174 694 l 0 694 l 0 1042 l 174 1042 l 174 1215 l 347 1215 l 347 1389 l 1215 1389 l 1215 1215 l 1389 1215 l 1389 868 l 1215 868 l 1215 694 l 1389 694 l 1389 347 z "},"t":{"ha":1042,"x_min":0,"x_max":1042,"o":"m 347 521 l 521 521 l 521 1042 l 694 1042 l 694 1215 l 521 1215 l 521 1563 l 347 1563 l 347 1215 l 174 1215 l 174 1042 l 347 1042 l 347 521 m 694 347 l 694 521 l 521 521 l 521 347 l 694 347 m 1042 0 l 521 0 l 521 174 l 347 174 l 347 347 l 174 347 l 174 868 l 0 868 l 0 1215 l 174 1215 l 174 1563 l 347 1563 l 347 1736 l 694 1736 l 694 1563 l 868 1563 l 868 1215 l 1042 1215 l 1042 868 l 868 868 l 868 521 l 1042 521 l 1042 0 z "},"u":{"ha":1389,"x_min":0,"x_max":1389,"o":"m 347 521 l 347 1215 l 174 1215 l 174 521 l 347 521 m 868 347 l 868 521 l 347 521 l 347 347 l 868 347 m 868 521 l 1042 521 l 1042 1215 l 868 1215 l 868 521 m 1389 174 l 1215 174 l 1215 0 l 347 0 l 347 174 l 174 174 l 174 347 l 0 347 l 0 1215 l 174 1215 l 174 1389 l 521 1389 l 521 1215 l 868 1215 l 868 1389 l 1215 1389 l 1215 1215 l 1389 1215 l 1389 174 z "},"v":{"ha":1389,"x_min":0,"x_max":1389,"o":"m 347 694 l 347 1215 l 174 1215 l 174 694 l 347 694 m 868 1215 l 868 694 l 1042 694 l 1042 1215 l 868 1215 m 521 521 l 521 694 l 347 694 l 347 521 l 521 521 m 694 521 l 521 521 l 521 347 l 694 347 l 694 521 m 694 694 l 694 521 l 868 521 l 868 694 l 694 694 m 1389 521 l 1215 521 l 1215 347 l 1042 347 l 1042 174 l 868 174 l 868 0 l 521 0 l 521 174 l 347 174 l 347 347 l 174 347 l 174 521 l 0 521 l 0 1215 l 174 1215 l 174 1389 l 521 1389 l 521 1215 l 868 1215 l 868 1389 l 1215 1389 l 1215 1215 l 1389 1215 l 1389 521 z "},"w":{"ha":1736,"x_min":0,"x_max":1736,"o":"m 347 521 l 347 1215 l 174 1215 l 174 521 l 347 521 m 521 347 l 521 521 l 347 521 l 347 347 l 521 347 m 694 521 l 694 694 l 521 694 l 521 521 l 694 521 m 868 694 l 868 1042 l 694 1042 l 694 694 l 868 694 m 1042 521 l 1042 694 l 868 694 l 868 521 l 1042 521 m 1215 347 l 1215 521 l 1042 521 l 1042 347 l 1215 347 m 1215 1215 l 1215 521 l 1389 521 l 1389 1215 l 1215 1215 m 694 174 l 694 0 l 347 0 l 347 174 l 174 174 l 174 347 l 0 347 l 0 1215 l 174 1215 l 174 1389 l 521 1389 l 521 1215 l 1215 1215 l 1215 1389 l 1563 1389 l 1563 1215 l 1736 1215 l 1736 347 l 1563 347 l 1563 174 l 1389 174 l 1389 0 l 1042 0 l 1042 174 l 694 174 z "},"x":{"ha":1389,"x_min":0,"x_max":1389,"o":"m 347 1042 l 347 1215 l 174 1215 l 174 1042 l 347 1042 m 521 868 l 521 1042 l 347 1042 l 347 868 l 521 868 m 694 694 l 694 868 l 521 868 l 521 694 l 694 694 m 347 521 l 521 521 l 521 694 l 347 694 l 347 521 m 174 347 l 347 347 l 347 521 l 174 521 l 174 347 m 868 868 l 868 1042 l 694 1042 l 694 868 l 868 868 m 1042 1042 l 1042 1215 l 868 1215 l 868 1042 l 1042 1042 m 694 521 l 868 521 l 868 694 l 694 694 l 694 521 m 1042 347 l 1042 521 l 868 521 l 868 347 l 1042 347 m 174 868 l 0 868 l 0 1215 l 174 1215 l 174 1389 l 521 1389 l 521 1215 l 868 1215 l 868 1389 l 1215 1389 l 1215 1215 l 1389 1215 l 1389 868 l 1215 868 l 1215 521 l 1389 521 l 1389 174 l 1215 174 l 1215 0 l 868 0 l 868 174 l 521 174 l 521 0 l 174 0 l 174 174 l 0 174 l 0 521 l 174 521 l 174 868 z "},"y":{"ha":1389,"x_min":0,"x_max":1389,"o":"m 347 1215 l 174 1215 l 174 521 l 347 521 l 347 1215 m 868 0 l 1042 0 l 1042 1215 l 868 1215 l 868 521 l 347 521 l 347 347 l 868 347 l 868 0 m 347 0 l 347 -174 l 868 -174 l 868 0 l 347 0 m 174 347 l 0 347 l 0 1215 l 174 1215 l 174 1389 l 521 1389 l 521 1215 l 868 1215 l 868 1389 l 1215 1389 l 1215 1215 l 1389 1215 l 1389 -174 l 1215 -174 l 1215 -347 l 1042 -347 l 1042 -521 l 347 -521 l 347 -347 l 174 -347 l 174 0 l 347 0 l 347 174 l 174 174 l 174 347 z "},"z":{"ha":1389,"x_min":0,"x_max":1389,"o":"m 868 868 l 1042 868 l 1042 1215 l 174 1215 l 174 1042 l 868 1042 l 868 868 m 347 694 l 868 694 l 868 868 l 347 868 l 347 694 m 1042 347 l 1042 521 l 347 521 l 347 694 l 174 694 l 174 347 l 1042 347 m 1389 0 l 174 0 l 174 174 l 0 174 l 0 694 l 174 694 l 174 868 l 0 868 l 0 1215 l 174 1215 l 174 1389 l 1215 1389 l 1215 1215 l 1389 1215 l 1389 868 l 1215 868 l 1215 521 l 1389 521 l 1389 0 z "},"{":{"ha":1042,"x_min":0,"x_max":1042,"o":"m 521 1389 l 694 1389 l 694 1563 l 521 1563 l 521 1389 m 347 1042 l 521 1042 l 521 1389 l 347 1389 l 347 1042 m 174 868 l 347 868 l 347 1042 l 174 1042 l 174 868 m 521 521 l 521 868 l 347 868 l 347 521 l 521 521 m 694 347 l 694 521 l 521 521 l 521 347 l 694 347 m 1042 1215 l 868 1215 l 868 521 l 1042 521 l 1042 0 l 521 0 l 521 174 l 347 174 l 347 347 l 174 347 l 174 694 l 0 694 l 0 1042 l 174 1042 l 174 1389 l 347 1389 l 347 1563 l 521 1563 l 521 1736 l 868 1736 l 868 1563 l 1042 1563 l 1042 1215 z "},"|":{"ha":694,"x_min":0,"x_max":694,"o":"m 174 347 l 347 347 l 347 1736 l 174 1736 l 174 347 m 521 1736 l 694 1736 l 694 0 l 174 0 l 174 174 l 0 174 l 0 1736 l 174 1736 l 174 1910 l 521 1910 l 521 1736 z "},"}":{"ha":1042,"x_min":0,"x_max":1042,"o":"m 347 1389 l 347 1563 l 174 1563 l 174 1389 l 347 1389 m 521 1042 l 521 1389 l 347 1389 l 347 1042 l 521 1042 m 694 868 l 694 1042 l 521 1042 l 521 868 l 694 868 m 347 521 l 521 521 l 521 868 l 347 868 l 347 521 m 174 347 l 347 347 l 347 521 l 174 521 l 174 347 m 521 174 l 521 0 l 174 0 l 174 174 l 0 174 l 0 521 l 174 521 l 174 1215 l 0 1215 l 0 1563 l 174 1563 l 174 1736 l 521 1736 l 521 1563 l 694 1563 l 694 1389 l 868 1389 l 868 1042 l 1042 1042 l 1042 694 l 868 694 l 868 347 l 694 347 l 694 174 l 521 174 z "},"~":{"ha":1215,"x_min":0,"x_max":1215,"o":"m 347 1215 l 347 1389 l 174 1389 l 174 1215 l 347 1215 m 521 1389 l 521 1563 l 347 1563 l 347 1389 l 521 1389 m 694 1215 l 694 1389 l 521 1389 l 521 1215 l 694 1215 m 868 1389 l 868 1563 l 694 1563 l 694 1389 l 868 1389 m 1215 1215 l 1042 1215 l 1042 1042 l 868 1042 l 868 868 l 174 868 l 174 1042 l 0 1042 l 0 1389 l 174 1389 l 174 1563 l 347 1563 l 347 1736 l 1042 1736 l 1042 1563 l 1215 1563 l 1215 1215 z "},"Ä":{"ha":1389,"x_min":0,"x_max":1389,"o":"m 1042 347 l 1042 1389 l 868 1389 l 868 1042 l 347 1042 l 347 1389 l 174 1389 l 174 347 l 347 347 l 347 868 l 868 868 l 868 347 l 1042 347 m 521 1736 l 521 1910 l 347 1910 l 347 1736 l 521 1736 m 868 1736 l 868 1910 l 694 1910 l 694 1736 l 868 1736 m 868 1563 l 347 1563 l 347 1389 l 868 1389 l 868 1563 m 694 174 l 694 0 l 174 0 l 174 174 l 0 174 l 0 1389 l 174 1389 l 174 1910 l 347 1910 l 347 2083 l 1042 2083 l 1042 1910 l 1215 1910 l 1215 1389 l 1389 1389 l 1389 0 l 868 0 l 868 174 l 694 174 z "},"Å":{"ha":1389,"x_min":0,"x_max":1389,"o":"m 1042 347 l 1042 1389 l 868 1389 l 868 1042 l 347 1042 l 347 1389 l 174 1389 l 174 347 l 347 347 l 347 868 l 868 868 l 868 347 l 1042 347 m 694 1736 l 694 1910 l 521 1910 l 521 1736 l 694 1736 m 868 2083 l 694 2083 l 694 1910 l 868 1910 l 868 2083 m 521 2083 l 347 2083 l 347 1910 l 521 1910 l 521 2083 m 694 2257 l 521 2257 l 521 2083 l 694 2083 l 694 2257 m 868 1563 l 347 1563 l 347 1389 l 868 1389 l 868 1563 m 694 174 l 694 0 l 174 0 l 174 174 l 0 174 l 0 1389 l 174 1389 l 174 1563 l 347 1563 l 347 1736 l 174 1736 l 174 2083 l 347 2083 l 347 2257 l 521 2257 l 521 2431 l 868 2431 l 868 2257 l 1042 2257 l 1042 2083 l 1215 2083 l 1215 1736 l 1042 1736 l 1042 1563 l 1215 1563 l 1215 1389 l 1389 1389 l 1389 0 l 868 0 l 868 174 l 694 174 z "},"Ç":{"ha":1389,"x_min":0,"x_max":1389,"o":"m 521 -347 l 521 -174 l 347 -174 l 347 174 l 174 174 l 174 347 l 0 347 l 0 1389 l 174 1389 l 174 1563 l 347 1563 l 347 1736 l 1215 1736 l 1215 1563 l 1389 1563 l 1389 1042 l 868 1042 l 868 694 l 1215 694 l 1215 521 l 1389 521 l 1389 0 l 1042 0 l 1042 -174 l 868 -174 l 868 -347 l 521 -347 m 1042 1389 l 1042 1563 l 347 1563 l 347 1389 l 1042 1389 m 347 521 l 347 1389 l 174 1389 l 174 521 l 347 521 m 694 347 l 694 174 l 868 174 l 868 347 l 1042 347 l 1042 521 l 347 521 l 347 347 l 694 347 m 694 174 l 521 174 l 521 0 l 694 0 l 694 174 z "},"É":{"ha":1215,"x_min":0,"x_max":1215,"o":"m 868 1910 l 868 2083 l 694 2083 l 694 1910 l 868 1910 m 521 1736 l 694 1736 l 694 1910 l 521 1910 l 521 1736 m 868 1563 l 174 1563 l 174 347 l 868 347 l 868 521 l 347 521 l 347 868 l 868 868 l 868 1042 l 347 1042 l 347 1389 l 868 1389 l 868 1563 m 1042 694 l 1042 521 l 1215 521 l 1215 0 l 174 0 l 174 174 l 0 174 l 0 1563 l 174 1563 l 174 1736 l 347 1736 l 347 1910 l 521 1910 l 521 2083 l 694 2083 l 694 2257 l 1042 2257 l 1042 2083 l 1215 2083 l 1215 1736 l 1042 1736 l 1042 1563 l 1215 1563 l 1215 1215 l 1042 1215 l 1042 1042 l 1215 1042 l 1215 694 l 1042 694 z "},"Ñ":{"ha":1389,"x_min":0,"x_max":1389,"o":"m 694 1042 l 694 1215 l 521 1215 l 521 1042 l 694 1042 m 521 1736 l 521 1910 l 347 1910 l 347 1736 l 521 1736 m 694 1910 l 694 2083 l 521 2083 l 521 1910 l 694 1910 m 868 1736 l 868 1910 l 694 1910 l 694 1736 l 868 1736 m 1042 1910 l 1042 2083 l 868 2083 l 868 1910 l 1042 1910 m 347 1563 l 174 1563 l 174 347 l 347 347 l 347 1215 l 521 1215 l 521 1389 l 347 1389 l 347 1563 m 868 1563 l 868 1042 l 694 1042 l 694 868 l 868 868 l 868 347 l 1042 347 l 1042 1563 l 868 1563 m 1389 1736 l 1215 1736 l 1215 1563 l 1389 1563 l 1389 0 l 868 0 l 868 174 l 694 174 l 694 0 l 174 0 l 174 174 l 0 174 l 0 1563 l 174 1563 l 174 1910 l 347 1910 l 347 2083 l 521 2083 l 521 2257 l 1215 2257 l 1215 2083 l 1389 2083 l 1389 1736 z "},"Ö":{"ha":1389,"x_min":0,"x_max":1389,"o":"m 174 521 l 347 521 l 347 1389 l 174 1389 l 174 521 m 868 347 l 868 521 l 347 521 l 347 347 l 868 347 m 1042 1389 l 868 1389 l 868 521 l 1042 521 l 1042 1389 m 521 1736 l 521 1910 l 347 1910 l 347 1736 l 521 1736 m 868 1736 l 868 1910 l 694 1910 l 694 1736 l 868 1736 m 868 1563 l 347 1563 l 347 1389 l 868 1389 l 868 1563 m 174 1910 l 347 1910 l 347 2083 l 1042 2083 l 1042 1910 l 1215 1910 l 1215 1389 l 1389 1389 l 1389 174 l 1215 174 l 1215 0 l 347 0 l 347 174 l 174 174 l 174 347 l 0 347 l 0 1389 l 174 1389 l 174 1910 z "},"Ü":{"ha":1389,"x_min":0,"x_max":1389,"o":"m 868 347 l 868 521 l 347 521 l 347 347 l 868 347 m 521 1736 l 521 1910 l 347 1910 l 347 1736 l 521 1736 m 868 1736 l 868 1910 l 694 1910 l 694 1736 l 868 1736 m 1042 1563 l 868 1563 l 868 521 l 1042 521 l 1042 1563 m 174 1563 l 174 1910 l 347 1910 l 347 2083 l 1042 2083 l 1042 1910 l 1215 1910 l 1215 1563 l 1389 1563 l 1389 174 l 1215 174 l 1215 0 l 347 0 l 347 174 l 174 174 l 174 347 l 0 347 l 0 1563 l 174 1563 m 347 1563 l 174 1563 l 174 521 l 347 521 l 347 1563 z "},"á":{"ha":1389,"x_min":0,"x_max":1389,"o":"m 1042 347 l 1042 1042 l 868 1042 l 868 868 l 347 868 l 347 694 l 868 694 l 868 521 l 347 521 l 347 347 l 1042 347 m 347 521 l 347 694 l 174 694 l 174 521 l 347 521 m 868 1563 l 868 1736 l 694 1736 l 694 1563 l 868 1563 m 521 1389 l 694 1389 l 694 1563 l 521 1563 l 521 1389 m 868 1215 l 347 1215 l 347 1042 l 868 1042 l 868 1215 m 347 174 l 174 174 l 174 347 l 0 347 l 0 694 l 174 694 l 174 868 l 347 868 l 347 1042 l 174 1042 l 174 1215 l 347 1215 l 347 1563 l 521 1563 l 521 1736 l 694 1736 l 694 1910 l 1042 1910 l 1042 1736 l 1215 1736 l 1215 1215 l 1389 1215 l 1389 0 l 347 0 l 347 174 z "},"à":{"ha":1389,"x_min":0,"x_max":1389,"o":"m 1042 347 l 1042 1042 l 868 1042 l 868 868 l 347 868 l 347 694 l 868 694 l 868 521 l 347 521 l 347 347 l 1042 347 m 347 521 l 347 694 l 174 694 l 174 521 l 347 521 m 521 1563 l 521 1736 l 347 1736 l 347 1563 l 521 1563 m 694 1389 l 694 1563 l 521 1563 l 521 1389 l 694 1389 m 868 1215 l 347 1215 l 347 1042 l 868 1042 l 868 1215 m 347 174 l 174 174 l 174 347 l 0 347 l 0 694 l 174 694 l 174 868 l 347 868 l 347 1042 l 174 1042 l 174 1215 l 347 1215 l 347 1389 l 174 1389 l 174 1736 l 347 1736 l 347 1910 l 694 1910 l 694 1736 l 868 1736 l 868 1563 l 1042 1563 l 1042 1389 l 1215 1389 l 1215 1215 l 1389 1215 l 1389 0 l 347 0 l 347 174 z "},"â":{"ha":1389,"x_min":0,"x_max":1389,"o":"m 1042 347 l 1042 1042 l 868 1042 l 868 868 l 347 868 l 347 694 l 868 694 l 868 521 l 347 521 l 347 347 l 1042 347 m 347 521 l 347 694 l 174 694 l 174 521 l 347 521 m 521 1389 l 521 1563 l 347 1563 l 347 1389 l 521 1389 m 694 1563 l 694 1736 l 521 1736 l 521 1563 l 694 1563 m 868 1389 l 868 1563 l 694 1563 l 694 1389 l 868 1389 m 347 1215 l 347 1042 l 868 1042 l 868 1215 l 347 1215 m 347 174 l 174 174 l 174 347 l 0 347 l 0 694 l 174 694 l 174 868 l 347 868 l 347 1042 l 174 1042 l 174 1563 l 347 1563 l 347 1736 l 521 1736 l 521 1910 l 868 1910 l 868 1736 l 1042 1736 l 1042 1563 l 1215 1563 l 1215 1215 l 1389 1215 l 1389 0 l 347 0 l 347 174 z "},"ä":{"ha":1389,"x_min":0,"x_max":1389,"o":"m 1042 347 l 1042 1042 l 868 1042 l 868 868 l 347 868 l 347 694 l 868 694 l 868 521 l 347 521 l 347 347 l 1042 347 m 347 521 l 347 694 l 174 694 l 174 521 l 347 521 m 521 1389 l 521 1563 l 347 1563 l 347 1389 l 521 1389 m 868 1389 l 868 1563 l 694 1563 l 694 1389 l 868 1389 m 868 1215 l 347 1215 l 347 1042 l 868 1042 l 868 1215 m 347 174 l 174 174 l 174 347 l 0 347 l 0 694 l 174 694 l 174 868 l 347 868 l 347 1042 l 174 1042 l 174 1563 l 347 1563 l 347 1736 l 1042 1736 l 1042 1563 l 1215 1563 l 1215 1215 l 1389 1215 l 1389 0 l 347 0 l 347 174 z "},"ã":{"ha":1389,"x_min":0,"x_max":1389,"o":"m 1042 347 l 1042 1042 l 868 1042 l 868 868 l 347 868 l 347 694 l 868 694 l 868 521 l 347 521 l 347 347 l 1042 347 m 347 521 l 347 694 l 174 694 l 174 521 l 347 521 m 521 1389 l 521 1563 l 347 1563 l 347 1389 l 521 1389 m 694 1563 l 694 1736 l 521 1736 l 521 1563 l 694 1563 m 868 1389 l 868 1563 l 694 1563 l 694 1389 l 868 1389 m 1042 1563 l 1042 1736 l 868 1736 l 868 1563 l 1042 1563 m 347 1215 l 347 1042 l 868 1042 l 868 1215 l 347 1215 m 347 174 l 174 174 l 174 347 l 0 347 l 0 694 l 174 694 l 174 868 l 347 868 l 347 1042 l 174 1042 l 174 1563 l 347 1563 l 347 1736 l 521 1736 l 521 1910 l 1215 1910 l 1215 1736 l 1389 1736 l 1389 1389 l 1215 1389 l 1215 1215 l 1389 1215 l 1389 0 l 347 0 l 347 174 z "},"å":{"ha":1389,"x_min":0,"x_max":1389,"o":"m 1042 347 l 1042 1042 l 868 1042 l 868 868 l 347 868 l 347 694 l 868 694 l 868 521 l 347 521 l 347 347 l 1042 347 m 347 521 l 347 694 l 174 694 l 174 521 l 347 521 m 694 1389 l 694 1563 l 521 1563 l 521 1389 l 694 1389 m 868 1736 l 694 1736 l 694 1563 l 868 1563 l 868 1736 m 521 1736 l 347 1736 l 347 1563 l 521 1563 l 521 1736 m 694 1910 l 521 1910 l 521 1736 l 694 1736 l 694 1910 m 868 1215 l 347 1215 l 347 1042 l 868 1042 l 868 1215 m 347 174 l 174 174 l 174 347 l 0 347 l 0 694 l 174 694 l 174 868 l 347 868 l 347 1042 l 174 1042 l 174 1215 l 347 1215 l 347 1389 l 174 1389 l 174 1736 l 347 1736 l 347 1910 l 521 1910 l 521 2083 l 868 2083 l 868 1910 l 1042 1910 l 1042 1736 l 1215 1736 l 1215 1215 l 1389 1215 l 1389 0 l 347 0 l 347 174 z "},"ç":{"ha":1215,"x_min":0,"x_max":1215,"o":"m 868 1042 l 868 1215 l 347 1215 l 347 1042 l 868 1042 m 347 521 l 347 1042 l 174 1042 l 174 521 l 347 521 m 521 347 l 521 174 l 694 174 l 694 347 l 868 347 l 868 521 l 347 521 l 347 347 l 521 347 m 347 0 l 521 0 l 521 174 l 347 174 l 347 0 m 868 0 l 868 -174 l 694 -174 l 694 -347 l 347 -347 l 347 -174 l 174 -174 l 174 347 l 0 347 l 0 1042 l 174 1042 l 174 1215 l 347 1215 l 347 1389 l 1042 1389 l 1042 1215 l 1215 1215 l 1215 868 l 868 868 l 868 694 l 1042 694 l 1042 521 l 1215 521 l 1215 0 l 868 0 z "},"é":{"ha":1389,"x_min":0,"x_max":1389,"o":"m 1042 694 l 1042 1042 l 868 1042 l 868 868 l 347 868 l 347 1042 l 174 1042 l 174 521 l 347 521 l 347 694 l 1042 694 m 1042 347 l 1042 521 l 347 521 l 347 347 l 1042 347 m 868 1563 l 868 1736 l 694 1736 l 694 1563 l 868 1563 m 521 1389 l 694 1389 l 694 1563 l 521 1563 l 521 1389 m 868 1215 l 347 1215 l 347 1042 l 868 1042 l 868 1215 m 1215 1389 l 1042 1389 l 1042 1215 l 1215 1215 l 1215 1042 l 1389 1042 l 1389 0 l 347 0 l 347 174 l 174 174 l 174 347 l 0 347 l 0 1042 l 174 1042 l 174 1215 l 347 1215 l 347 1563 l 521 1563 l 521 1736 l 694 1736 l 694 1910 l 1042 1910 l 1042 1736 l 1215 1736 l 1215 1389 z "},"è":{"ha":1389,"x_min":0,"x_max":1389,"o":"m 1042 694 l 1042 1042 l 868 1042 l 868 868 l 347 868 l 347 1042 l 174 1042 l 174 521 l 347 521 l 347 694 l 1042 694 m 1042 347 l 1042 521 l 347 521 l 347 347 l 1042 347 m 521 1563 l 521 1736 l 347 1736 l 347 1563 l 521 1563 m 694 1389 l 694 1563 l 521 1563 l 521 1389 l 694 1389 m 868 1215 l 347 1215 l 347 1042 l 868 1042 l 868 1215 m 868 1563 l 1042 1563 l 1042 1215 l 1215 1215 l 1215 1042 l 1389 1042 l 1389 0 l 347 0 l 347 174 l 174 174 l 174 347 l 0 347 l 0 1042 l 174 1042 l 174 1215 l 347 1215 l 347 1389 l 174 1389 l 174 1736 l 347 1736 l 347 1910 l 694 1910 l 694 1736 l 868 1736 l 868 1563 z "},"ê":{"ha":1389,"x_min":0,"x_max":1389,"o":"m 1042 694 l 1042 1042 l 868 1042 l 868 868 l 347 868 l 347 1042 l 174 1042 l 174 521 l 347 521 l 347 694 l 1042 694 m 1042 347 l 1042 521 l 347 521 l 347 347 l 1042 347 m 521 1389 l 521 1563 l 347 1563 l 347 1389 l 521 1389 m 694 1563 l 694 1736 l 521 1736 l 521 1563 l 694 1563 m 868 1389 l 868 1563 l 694 1563 l 694 1389 l 868 1389 m 174 1563 l 347 1563 l 347 1736 l 521 1736 l 521 1910 l 868 1910 l 868 1736 l 1042 1736 l 1042 1563 l 1215 1563 l 1215 1042 l 1389 1042 l 1389 0 l 347 0 l 347 174 l 174 174 l 174 347 l 0 347 l 0 1042 l 174 1042 l 174 1563 m 347 1215 l 347 1042 l 868 1042 l 868 1215 l 347 1215 z "},"ë":{"ha":1389,"x_min":0,"x_max":1389,"o":"m 1042 694 l 1042 1042 l 868 1042 l 868 868 l 347 868 l 347 1042 l 174 1042 l 174 521 l 347 521 l 347 694 l 1042 694 m 1042 347 l 1042 521 l 347 521 l 347 347 l 1042 347 m 521 1389 l 521 1563 l 347 1563 l 347 1389 l 521 1389 m 868 1389 l 868 1563 l 694 1563 l 694 1389 l 868 1389 m 868 1215 l 347 1215 l 347 1042 l 868 1042 l 868 1215 m 174 1563 l 347 1563 l 347 1736 l 1042 1736 l 1042 1563 l 1215 1563 l 1215 1042 l 1389 1042 l 1389 0 l 347 0 l 347 174 l 174 174 l 174 347 l 0 347 l 0 1042 l 174 1042 l 174 1563 z "},"í":{"ha":694,"x_min":0,"x_max":868,"o":"m 521 1563 l 521 1736 l 347 1736 l 347 1563 l 521 1563 m 347 1215 l 174 1215 l 174 347 l 347 347 l 347 1215 m 174 1389 l 347 1389 l 347 1563 l 174 1563 l 174 1389 m 868 1389 l 694 1389 l 694 0 l 174 0 l 174 174 l 0 174 l 0 1563 l 174 1563 l 174 1736 l 347 1736 l 347 1910 l 694 1910 l 694 1736 l 868 1736 l 868 1389 z "},"ì":{"ha":694,"x_min":-174,"x_max":694,"o":"m 174 1563 l 174 1736 l 0 1736 l 0 1563 l 174 1563 m 347 1215 l 174 1215 l 174 347 l 347 347 l 347 1215 m 347 1389 l 347 1563 l 174 1563 l 174 1389 l 347 1389 m 521 1563 l 694 1563 l 694 0 l 174 0 l 174 174 l 0 174 l 0 1389 l -174 1389 l -174 1736 l 0 1736 l 0 1910 l 347 1910 l 347 1736 l 521 1736 l 521 1563 z "},"î":{"ha":694,"x_min":-174,"x_max":868,"o":"m 174 1389 l 174 1563 l 0 1563 l 0 1389 l 174 1389 m 347 1563 l 347 1736 l 174 1736 l 174 1563 l 347 1563 m 521 1389 l 521 1563 l 347 1563 l 347 1389 l 521 1389 m 0 1215 l -174 1215 l -174 1563 l 0 1563 l 0 1736 l 174 1736 l 174 1910 l 521 1910 l 521 1736 l 694 1736 l 694 1563 l 868 1563 l 868 1215 l 694 1215 l 694 0 l 174 0 l 174 174 l 0 174 l 0 1215 m 347 1215 l 174 1215 l 174 347 l 347 347 l 347 1215 z "},"ï":{"ha":694,"x_min":-174,"x_max":868,"o":"m 174 1389 l 174 1563 l 0 1563 l 0 1389 l 174 1389 m 521 1389 l 521 1563 l 347 1563 l 347 1389 l 521 1389 m 347 1215 l 174 1215 l 174 347 l 347 347 l 347 1215 m 0 1215 l -174 1215 l -174 1563 l 0 1563 l 0 1736 l 694 1736 l 694 1563 l 868 1563 l 868 1215 l 694 1215 l 694 0 l 174 0 l 174 174 l 0 174 l 0 1215 z "},"ñ":{"ha":1389,"x_min":0,"x_max":1389,"o":"m 1042 1042 l 868 1042 l 868 347 l 1042 347 l 1042 1042 m 521 1389 l 521 1563 l 347 1563 l 347 1389 l 521 1389 m 694 1563 l 694 1736 l 521 1736 l 521 1563 l 694 1563 m 868 1389 l 868 1563 l 694 1563 l 694 1389 l 868 1389 m 1042 1563 l 1042 1736 l 868 1736 l 868 1563 l 1042 1563 m 174 1215 l 174 347 l 347 347 l 347 1042 l 868 1042 l 868 1215 l 174 1215 m 1389 1389 l 1215 1389 l 1215 1042 l 1389 1042 l 1389 174 l 1215 174 l 1215 0 l 868 0 l 868 174 l 521 174 l 521 0 l 174 0 l 174 174 l 0 174 l 0 1215 l 174 1215 l 174 1563 l 347 1563 l 347 1736 l 521 1736 l 521 1910 l 1215 1910 l 1215 1736 l 1389 1736 l 1389 1389 z "},"ó":{"ha":1389,"x_min":0,"x_max":1389,"o":"m 347 521 l 347 1042 l 174 1042 l 174 521 l 347 521 m 868 521 l 1042 521 l 1042 1042 l 868 1042 l 868 521 m 347 347 l 868 347 l 868 521 l 347 521 l 347 347 m 868 1563 l 868 1736 l 694 1736 l 694 1563 l 868 1563 m 521 1389 l 694 1389 l 694 1563 l 521 1563 l 521 1389 m 868 1215 l 347 1215 l 347 1042 l 868 1042 l 868 1215 m 1215 1389 l 1042 1389 l 1042 1215 l 1215 1215 l 1215 1042 l 1389 1042 l 1389 347 l 1215 347 l 1215 174 l 1042 174 l 1042 0 l 347 0 l 347 174 l 174 174 l 174 347 l 0 347 l 0 1042 l 174 1042 l 174 1215 l 347 1215 l 347 1563 l 521 1563 l 521 1736 l 694 1736 l 694 1910 l 1042 1910 l 1042 1736 l 1215 1736 l 1215 1389 z "},"ò":{"ha":1389,"x_min":0,"x_max":1389,"o":"m 347 521 l 347 1042 l 174 1042 l 174 521 l 347 521 m 868 521 l 1042 521 l 1042 1042 l 868 1042 l 868 521 m 347 347 l 868 347 l 868 521 l 347 521 l 347 347 m 521 1563 l 521 1736 l 347 1736 l 347 1563 l 521 1563 m 694 1389 l 694 1563 l 521 1563 l 521 1389 l 694 1389 m 868 1215 l 347 1215 l 347 1042 l 868 1042 l 868 1215 m 868 1563 l 1042 1563 l 1042 1215 l 1215 1215 l 1215 1042 l 1389 1042 l 1389 347 l 1215 347 l 1215 174 l 1042 174 l 1042 0 l 347 0 l 347 174 l 174 174 l 174 347 l 0 347 l 0 1042 l 174 1042 l 174 1215 l 347 1215 l 347 1389 l 174 1389 l 174 1736 l 347 1736 l 347 1910 l 694 1910 l 694 1736 l 868 1736 l 868 1563 z "},"ô":{"ha":1389,"x_min":0,"x_max":1389,"o":"m 347 521 l 347 1042 l 174 1042 l 174 521 l 347 521 m 868 521 l 1042 521 l 1042 1042 l 868 1042 l 868 521 m 347 347 l 868 347 l 868 521 l 347 521 l 347 347 m 521 1389 l 521 1563 l 347 1563 l 347 1389 l 521 1389 m 694 1563 l 694 1736 l 521 1736 l 521 1563 l 694 1563 m 868 1389 l 868 1563 l 694 1563 l 694 1389 l 868 1389 m 174 1563 l 347 1563 l 347 1736 l 521 1736 l 521 1910 l 868 1910 l 868 1736 l 1042 1736 l 1042 1563 l 1215 1563 l 1215 1042 l 1389 1042 l 1389 347 l 1215 347 l 1215 174 l 1042 174 l 1042 0 l 347 0 l 347 174 l 174 174 l 174 347 l 0 347 l 0 1042 l 174 1042 l 174 1563 m 347 1215 l 347 1042 l 868 1042 l 868 1215 l 347 1215 z "},"ö":{"ha":1389,"x_min":0,"x_max":1389,"o":"m 347 521 l 347 1042 l 174 1042 l 174 521 l 347 521 m 868 521 l 1042 521 l 1042 1042 l 868 1042 l 868 521 m 347 347 l 868 347 l 868 521 l 347 521 l 347 347 m 521 1389 l 521 1563 l 347 1563 l 347 1389 l 521 1389 m 868 1389 l 868 1563 l 694 1563 l 694 1389 l 868 1389 m 868 1215 l 347 1215 l 347 1042 l 868 1042 l 868 1215 m 174 1563 l 347 1563 l 347 1736 l 1042 1736 l 1042 1563 l 1215 1563 l 1215 1042 l 1389 1042 l 1389 347 l 1215 347 l 1215 174 l 1042 174 l 1042 0 l 347 0 l 347 174 l 174 174 l 174 347 l 0 347 l 0 1042 l 174 1042 l 174 1563 z "},"õ":{"ha":1389,"x_min":0,"x_max":1389,"o":"m 347 521 l 347 1042 l 174 1042 l 174 521 l 347 521 m 868 521 l 1042 521 l 1042 1042 l 868 1042 l 868 521 m 347 347 l 868 347 l 868 521 l 347 521 l 347 347 m 521 1389 l 521 1563 l 347 1563 l 347 1389 l 521 1389 m 694 1563 l 694 1736 l 521 1736 l 521 1563 l 694 1563 m 868 1389 l 868 1563 l 694 1563 l 694 1389 l 868 1389 m 1042 1563 l 1042 1736 l 868 1736 l 868 1563 l 1042 1563 m 347 1215 l 347 1042 l 868 1042 l 868 1215 l 347 1215 m 1389 1389 l 1215 1389 l 1215 1042 l 1389 1042 l 1389 347 l 1215 347 l 1215 174 l 1042 174 l 1042 0 l 347 0 l 347 174 l 174 174 l 174 347 l 0 347 l 0 1042 l 174 1042 l 174 1563 l 347 1563 l 347 1736 l 521 1736 l 521 1910 l 1215 1910 l 1215 1736 l 1389 1736 l 1389 1389 z "},"ú":{"ha":1389,"x_min":0,"x_max":1389,"o":"m 347 521 l 347 1215 l 174 1215 l 174 521 l 347 521 m 868 347 l 868 521 l 347 521 l 347 347 l 868 347 m 868 1563 l 868 1736 l 694 1736 l 694 1563 l 868 1563 m 521 1389 l 694 1389 l 694 1563 l 521 1563 l 521 1389 m 1042 1215 l 868 1215 l 868 521 l 1042 521 l 1042 1215 m 1215 1215 l 1389 1215 l 1389 174 l 1215 174 l 1215 0 l 347 0 l 347 174 l 174 174 l 174 347 l 0 347 l 0 1215 l 174 1215 l 174 1389 l 347 1389 l 347 1563 l 521 1563 l 521 1736 l 694 1736 l 694 1910 l 1042 1910 l 1042 1736 l 1215 1736 l 1215 1215 z "},"ù":{"ha":1389,"x_min":0,"x_max":1389,"o":"m 347 521 l 347 1215 l 174 1215 l 174 521 l 347 521 m 868 347 l 868 521 l 347 521 l 347 347 l 868 347 m 521 1563 l 521 1736 l 347 1736 l 347 1563 l 521 1563 m 694 1389 l 694 1563 l 521 1563 l 521 1389 l 694 1389 m 1042 1215 l 868 1215 l 868 521 l 1042 521 l 1042 1215 m 868 1563 l 1042 1563 l 1042 1389 l 1215 1389 l 1215 1215 l 1389 1215 l 1389 174 l 1215 174 l 1215 0 l 347 0 l 347 174 l 174 174 l 174 347 l 0 347 l 0 1215 l 174 1215 l 174 1736 l 347 1736 l 347 1910 l 694 1910 l 694 1736 l 868 1736 l 868 1563 z "},"û":{"ha":1389,"x_min":0,"x_max":1389,"o":"m 868 347 l 868 521 l 347 521 l 347 347 l 868 347 m 521 1389 l 521 1563 l 347 1563 l 347 1389 l 521 1389 m 694 1563 l 694 1736 l 521 1736 l 521 1563 l 694 1563 m 868 1389 l 868 1563 l 694 1563 l 694 1389 l 868 1389 m 1042 1215 l 868 1215 l 868 521 l 1042 521 l 1042 1215 m 174 1215 l 174 1563 l 347 1563 l 347 1736 l 521 1736 l 521 1910 l 868 1910 l 868 1736 l 1042 1736 l 1042 1563 l 1215 1563 l 1215 1215 l 1389 1215 l 1389 174 l 1215 174 l 1215 0 l 347 0 l 347 174 l 174 174 l 174 347 l 0 347 l 0 1215 l 174 1215 m 347 1215 l 174 1215 l 174 521 l 347 521 l 347 1215 z "},"ü":{"ha":1389,"x_min":0,"x_max":1389,"o":"m 868 347 l 868 521 l 347 521 l 347 347 l 868 347 m 521 1389 l 521 1563 l 347 1563 l 347 1389 l 521 1389 m 868 1389 l 868 1563 l 694 1563 l 694 1389 l 868 1389 m 1042 1215 l 868 1215 l 868 521 l 1042 521 l 1042 1215 m 174 1215 l 174 1563 l 347 1563 l 347 1736 l 1042 1736 l 1042 1563 l 1215 1563 l 1215 1215 l 1389 1215 l 1389 174 l 1215 174 l 1215 0 l 347 0 l 347 174 l 174 174 l 174 347 l 0 347 l 0 1215 l 174 1215 m 347 1215 l 174 1215 l 174 521 l 347 521 l 347 1215 z "},"°":{"ha":1042,"x_min":0,"x_max":1042,"o":"m 174 1042 l 694 1042 l 694 1563 l 174 1563 l 174 1042 m 1042 868 l 868 868 l 868 694 l 174 694 l 174 868 l 0 868 l 0 1563 l 174 1563 l 174 1736 l 868 1736 l 868 1563 l 1042 1563 l 1042 868 m 347 1389 l 521 1389 l 521 1215 l 347 1215 l 347 1389 z "},"•":{"ha":868,"x_min":0,"x_max":868,"o":"m 174 868 l 521 868 l 521 1215 l 174 1215 l 174 868 m 868 694 l 694 694 l 694 521 l 174 521 l 174 694 l 0 694 l 0 1215 l 174 1215 l 174 1389 l 694 1389 l 694 1215 l 868 1215 l 868 694 z "},"¶":{"ha":1389,"x_min":0,"x_max":1389,"o":"m 174 868 l 347 868 l 347 1389 l 174 1389 l 174 868 m 694 694 l 868 694 l 868 347 l 1042 347 l 1042 1563 l 347 1563 l 347 1389 l 521 1389 l 521 868 l 347 868 l 347 694 l 521 694 l 521 347 l 694 347 l 694 694 m 1215 1563 l 1389 1563 l 1389 0 l 521 0 l 521 174 l 347 174 l 347 521 l 174 521 l 174 694 l 0 694 l 0 1389 l 174 1389 l 174 1563 l 347 1563 l 347 1736 l 1215 1736 l 1215 1563 m 694 1389 l 868 1389 l 868 868 l 694 868 l 694 1389 z "},"ß":{"ha":1389,"x_min":0,"x_max":1389,"o":"m 868 1389 l 868 1563 l 347 1563 l 347 1389 l 868 1389 m 174 -174 l 347 -174 l 347 1389 l 174 1389 l 174 -174 m 868 1042 l 1042 1042 l 1042 1389 l 868 1389 l 868 1042 m 868 521 l 1042 521 l 1042 868 l 868 868 l 868 521 m 694 347 l 868 347 l 868 521 l 694 521 l 694 347 m 1389 347 l 1215 347 l 1215 174 l 1042 174 l 1042 0 l 694 0 l 694 -521 l 174 -521 l 174 -347 l 0 -347 l 0 1389 l 174 1389 l 174 1563 l 347 1563 l 347 1736 l 1042 1736 l 1042 1563 l 1215 1563 l 1215 1389 l 1389 1389 l 1389 1042 l 1215 1042 l 1215 868 l 1389 868 l 1389 347 m 521 868 l 868 868 l 868 1042 l 521 1042 l 521 868 z "},"®":{"ha":1042,"x_min":0,"x_max":1042,"o":"m 694 1042 l 521 1042 l 521 868 l 694 868 l 694 1042 m 694 1215 l 694 1563 l 174 1563 l 174 868 l 347 868 l 347 1042 l 521 1042 l 521 1215 l 347 1215 l 347 1389 l 521 1389 l 521 1215 l 694 1215 m 1042 521 l 174 521 l 174 694 l 0 694 l 0 1563 l 174 1563 l 174 1736 l 868 1736 l 868 1563 l 1042 1563 l 1042 521 z "},"©":{"ha":1042,"x_min":0,"x_max":1042,"o":"m 694 1389 l 694 1563 l 347 1563 l 347 1389 l 694 1389 m 174 1042 l 347 1042 l 347 1389 l 174 1389 l 174 1042 m 694 868 l 694 1042 l 347 1042 l 347 868 l 694 868 m 1042 1215 l 868 1215 l 868 1042 l 1042 1042 l 1042 521 l 347 521 l 347 694 l 174 694 l 174 868 l 0 868 l 0 1389 l 174 1389 l 174 1563 l 347 1563 l 347 1736 l 868 1736 l 868 1563 l 1042 1563 l 1042 1215 z "},"™":{"ha":1910,"x_min":0,"x_max":1910,"o":"m 1215 1042 l 1215 1215 l 1042 1215 l 1042 1042 l 1215 1042 m 868 868 l 868 1215 l 1042 1215 l 1042 1389 l 868 1389 l 868 1563 l 174 1563 l 174 1389 l 347 1389 l 347 868 l 521 868 l 521 1389 l 694 1389 l 694 868 l 868 868 m 1563 868 l 1563 1563 l 1389 1563 l 1389 1389 l 1215 1389 l 1215 1215 l 1389 1215 l 1389 868 l 1563 868 m 1215 694 l 1215 521 l 347 521 l 347 694 l 174 694 l 174 1215 l 0 1215 l 0 1563 l 174 1563 l 174 1736 l 1042 1736 l 1042 1563 l 1389 1563 l 1389 1736 l 1736 1736 l 1736 1563 l 1910 1563 l 1910 521 l 1389 521 l 1389 694 l 1215 694 z "},"´":{"ha":868,"x_min":0,"x_max":868,"o":"m 521 1389 l 521 1563 l 347 1563 l 347 1389 l 521 1389 m 174 1215 l 347 1215 l 347 1389 l 174 1389 l 174 1215 m 868 1215 l 694 1215 l 694 1042 l 521 1042 l 521 868 l 174 868 l 174 1042 l 0 1042 l 0 1389 l 174 1389 l 174 1563 l 347 1563 l 347 1736 l 694 1736 l 694 1563 l 868 1563 l 868 1215 z "},"¨":{"ha":1042,"x_min":0,"x_max":1042,"o":"m 347 1389 l 347 1563 l 174 1563 l 174 1389 l 347 1389 m 694 1389 l 694 1563 l 521 1563 l 521 1389 l 694 1389 m 174 1042 l 174 1215 l 0 1215 l 0 1563 l 174 1563 l 174 1736 l 868 1736 l 868 1563 l 1042 1563 l 1042 1042 l 174 1042 z "},"≠":{"ha":1042,"x_min":0,"x_max":1042,"o":"m 0 1215 l 174 1215 l 174 1389 l 347 1389 l 347 1563 l 694 1563 l 694 1389 l 868 1389 l 868 1215 l 1042 1215 l 1042 347 l 694 347 l 694 174 l 347 174 l 347 347 l 174 347 l 174 521 l 0 521 l 0 1215 m 521 1042 l 694 1042 l 694 1215 l 521 1215 l 521 1389 l 347 1389 l 347 1215 l 174 1215 l 174 1042 l 347 1042 l 347 868 l 174 868 l 174 694 l 347 694 l 347 521 l 521 521 l 521 694 l 694 694 l 694 868 l 521 868 l 521 1042 z "},"Æ":{"ha":1910,"x_min":0,"x_max":1910,"o":"m 868 1389 l 868 1563 l 347 1563 l 347 1389 l 868 1389 m 1042 1389 l 1563 1389 l 1563 1563 l 1042 1563 l 1042 1389 m 1563 347 l 1563 521 l 1042 521 l 1042 868 l 1563 868 l 1563 1042 l 1042 1042 l 1042 1389 l 868 1389 l 868 1042 l 347 1042 l 347 1389 l 174 1389 l 174 347 l 347 347 l 347 868 l 868 868 l 868 347 l 1563 347 m 694 174 l 694 0 l 174 0 l 174 174 l 0 174 l 0 1389 l 174 1389 l 174 1563 l 347 1563 l 347 1736 l 868 1736 l 868 1563 l 1042 1563 l 1042 1736 l 1736 1736 l 1736 1563 l 1910 1563 l 1910 0 l 868 0 l 868 174 l 694 174 z "},"Ø":{"ha":1389,"x_min":0,"x_max":1389,"o":"m 347 1389 l 868 1389 l 868 1563 l 347 1563 l 347 1389 m 521 868 l 694 868 l 694 1042 l 521 1042 l 521 868 m 347 521 l 347 347 l 868 347 l 868 521 l 347 521 m 347 174 l 174 174 l 174 347 l 0 347 l 0 1389 l 174 1389 l 174 1563 l 347 1563 l 347 1736 l 1042 1736 l 1042 1563 l 1215 1563 l 1215 1389 l 1389 1389 l 1389 174 l 1215 174 l 1215 0 l 347 0 l 347 174 m 868 1215 l 694 1215 l 694 1042 l 868 1042 l 868 521 l 1042 521 l 1042 1389 l 868 1389 l 868 1215 m 521 694 l 521 868 l 347 868 l 347 1389 l 174 1389 l 174 521 l 347 521 l 347 694 l 521 694 z "},"±":{"ha":1042,"x_min":0,"x_max":1042,"o":"m 1042 0 l 174 0 l 174 174 l 0 174 l 0 1042 l 174 1042 l 174 1215 l 347 1215 l 347 1389 l 694 1389 l 694 1215 l 868 1215 l 868 1042 l 1042 1042 l 1042 0 m 174 521 l 174 347 l 694 347 l 694 521 l 174 521 m 347 694 l 521 694 l 521 868 l 694 868 l 694 1042 l 521 1042 l 521 1215 l 347 1215 l 347 1042 l 174 1042 l 174 868 l 347 868 l 347 694 z "},"≤":{"ha":868,"x_min":0,"x_max":868,"o":"m 347 868 l 521 868 l 521 1042 l 347 1042 l 347 868 m 174 694 l 347 694 l 347 868 l 174 868 l 174 694 m 868 0 l 174 0 l 174 174 l 0 174 l 0 868 l 174 868 l 174 1042 l 347 1042 l 347 1215 l 694 1215 l 694 1042 l 868 1042 l 868 0 m 521 347 l 521 694 l 347 694 l 347 521 l 174 521 l 174 347 l 521 347 z "},"≥":{"ha":868,"x_min":0,"x_max":868,"o":"m 347 868 l 347 1042 l 174 1042 l 174 868 l 347 868 m 521 694 l 521 868 l 347 868 l 347 694 l 521 694 m 174 347 l 521 347 l 521 521 l 347 521 l 347 694 l 174 694 l 174 347 m 868 0 l 174 0 l 174 174 l 0 174 l 0 1042 l 174 1042 l 174 1215 l 521 1215 l 521 1042 l 694 1042 l 694 868 l 868 868 l 868 0 z "},"∏":{"ha":1563,"x_min":0,"x_max":1563,"o":"m 868 347 l 1042 347 l 1042 1389 l 1215 1389 l 1215 1563 l 174 1563 l 174 1389 l 347 1389 l 347 347 l 521 347 l 521 1389 l 868 1389 l 868 347 m 347 0 l 347 174 l 174 174 l 174 1215 l 0 1215 l 0 1563 l 174 1563 l 174 1736 l 1389 1736 l 1389 1563 l 1563 1563 l 1563 1042 l 1389 1042 l 1389 0 l 347 0 z "},"π":{"ha":1563,"x_min":0,"x_max":1563,"o":"m 868 347 l 1042 347 l 1042 1042 l 1215 1042 l 1215 1215 l 174 1215 l 174 1042 l 347 1042 l 347 347 l 521 347 l 521 1042 l 868 1042 l 868 347 m 347 0 l 347 174 l 174 174 l 174 868 l 0 868 l 0 1215 l 174 1215 l 174 1389 l 1389 1389 l 1389 1215 l 1563 1215 l 1563 694 l 1389 694 l 1389 0 l 347 0 z "},"æ":{"ha":2083,"x_min":0,"x_max":2083,"o":"m 868 1042 l 868 1215 l 347 1215 l 347 1042 l 868 1042 m 347 521 l 347 694 l 174 694 l 174 521 l 347 521 m 868 347 l 868 521 l 347 521 l 347 347 l 868 347 m 1563 1042 l 1563 1215 l 1042 1215 l 1042 1042 l 1563 1042 m 1736 694 l 1736 1042 l 1563 1042 l 1563 868 l 1042 868 l 1042 1042 l 868 1042 l 868 868 l 347 868 l 347 694 l 868 694 l 868 521 l 1042 521 l 1042 694 l 1736 694 m 1736 347 l 1736 521 l 1042 521 l 1042 347 l 1736 347 m 347 174 l 174 174 l 174 347 l 0 347 l 0 694 l 174 694 l 174 868 l 347 868 l 347 1042 l 174 1042 l 174 1215 l 347 1215 l 347 1389 l 1736 1389 l 1736 1215 l 1910 1215 l 1910 1042 l 2083 1042 l 2083 0 l 347 0 l 347 174 z "},"ø":{"ha":1389,"x_min":0,"x_max":1389,"o":"m 1389 347 l 1215 347 l 1215 174 l 1042 174 l 1042 0 l 347 0 l 347 174 l 174 174 l 174 347 l 0 347 l 0 1042 l 174 1042 l 174 1215 l 347 1215 l 347 1389 l 1042 1389 l 1042 1215 l 1215 1215 l 1215 1042 l 1389 1042 l 1389 347 m 521 521 l 521 694 l 347 694 l 347 1042 l 174 1042 l 174 521 l 347 521 l 347 347 l 868 347 l 868 521 l 521 521 m 521 868 l 521 694 l 694 694 l 694 868 l 521 868 m 694 1042 l 694 868 l 868 868 l 868 521 l 1042 521 l 1042 1042 l 868 1042 l 868 1215 l 347 1215 l 347 1042 l 694 1042 z "},"¿":{"ha":1563,"x_min":0,"x_max":1563,"o":"m 347 521 l 347 347 l 1042 347 l 1042 521 l 347 521 m 347 868 l 174 868 l 174 521 l 347 521 l 347 868 m 521 868 l 521 1042 l 347 1042 l 347 868 l 521 868 m 694 1042 l 694 1215 l 521 1215 l 521 1042 l 694 1042 m 1215 694 l 1042 694 l 1042 521 l 1215 521 l 1215 694 m 521 1563 l 521 1389 l 694 1389 l 694 1563 l 521 1563 m 1042 1042 l 868 1042 l 868 694 l 1042 694 l 1042 868 l 1389 868 l 1389 694 l 1563 694 l 1563 347 l 1389 347 l 1389 174 l 1215 174 l 1215 0 l 347 0 l 347 174 l 174 174 l 174 347 l 0 347 l 0 868 l 174 868 l 174 1042 l 347 1042 l 347 1563 l 521 1563 l 521 1736 l 868 1736 l 868 1563 l 1042 1563 l 1042 1042 z "},"¡":{"ha":694,"x_min":0,"x_max":694,"o":"m 347 1215 l 174 1215 l 174 347 l 347 347 l 347 1215 m 174 1389 l 347 1389 l 347 1563 l 174 1563 l 174 1389 m 694 0 l 174 0 l 174 174 l 0 174 l 0 1563 l 174 1563 l 174 1736 l 521 1736 l 521 1563 l 694 1563 l 694 0 z "},"¬":{"ha":1042,"x_min":0,"x_max":1042,"o":"m 521 868 l 521 694 l 694 694 l 694 1042 l 174 1042 l 174 868 l 521 868 m 1042 347 l 521 347 l 521 521 l 174 521 l 174 694 l 0 694 l 0 1042 l 174 1042 l 174 1215 l 868 1215 l 868 1042 l 1042 1042 l 1042 347 z "},"«":{"ha":1215,"x_min":0,"x_max":1215,"o":"m 694 694 l 868 694 l 868 868 l 694 868 l 694 694 m 521 521 l 694 521 l 694 694 l 521 694 l 521 521 m 868 347 l 868 521 l 694 521 l 694 347 l 868 347 m 347 868 l 347 694 l 521 694 l 521 868 l 347 868 m 347 521 l 347 694 l 174 694 l 174 521 l 347 521 m 521 347 l 521 521 l 347 521 l 347 347 l 521 347 m 1215 0 l 347 0 l 347 174 l 174 174 l 174 347 l 0 347 l 0 694 l 174 694 l 174 868 l 347 868 l 347 1042 l 1042 1042 l 1042 868 l 1215 868 l 1215 0 z "},"»":{"ha":1215,"x_min":0,"x_max":1215,"o":"m 347 694 l 347 868 l 174 868 l 174 694 l 347 694 m 521 521 l 521 694 l 347 694 l 347 521 l 521 521 m 174 347 l 347 347 l 347 521 l 174 521 l 174 347 m 694 868 l 521 868 l 521 694 l 694 694 l 694 868 m 694 521 l 868 521 l 868 694 l 694 694 l 694 521 m 521 347 l 694 347 l 694 521 l 521 521 l 521 347 m 1215 347 l 1042 347 l 1042 174 l 868 174 l 868 0 l 174 0 l 174 174 l 0 174 l 0 868 l 174 868 l 174 1042 l 868 1042 l 868 868 l 1042 868 l 1042 694 l 1215 694 l 1215 347 z "},"…":{"ha":1389,"x_min":0,"x_max":1389,"o":"m 347 347 l 347 521 l 174 521 l 174 347 l 347 347 m 694 347 l 694 521 l 521 521 l 521 347 l 694 347 m 1042 347 l 1042 521 l 868 521 l 868 347 l 1042 347 m 1215 521 l 1389 521 l 1389 0 l 174 0 l 174 174 l 0 174 l 0 521 l 174 521 l 174 694 l 1215 694 l 1215 521 z "}," ":{"ha":694,"x_min":0,"x_max":0,"o":""},"À":{"ha":1389,"x_min":0,"x_max":1389,"o":"m 1042 347 l 1042 1389 l 868 1389 l 868 1042 l 347 1042 l 347 1389 l 174 1389 l 174 347 l 347 347 l 347 868 l 868 868 l 868 347 l 1042 347 m 521 1910 l 521 2083 l 347 2083 l 347 1910 l 521 1910 m 694 1736 l 694 1910 l 521 1910 l 521 1736 l 694 1736 m 868 1563 l 347 1563 l 347 1389 l 868 1389 l 868 1563 m 694 174 l 694 0 l 174 0 l 174 174 l 0 174 l 0 1389 l 174 1389 l 174 1563 l 347 1563 l 347 1736 l 174 1736 l 174 2083 l 347 2083 l 347 2257 l 694 2257 l 694 2083 l 868 2083 l 868 1910 l 1042 1910 l 1042 1563 l 1215 1563 l 1215 1389 l 1389 1389 l 1389 0 l 868 0 l 868 174 l 694 174 z "},"Ã":{"ha":1389,"x_min":0,"x_max":1389,"o":"m 1042 347 l 1042 1389 l 868 1389 l 868 1042 l 347 1042 l 347 1389 l 174 1389 l 174 347 l 347 347 l 347 868 l 868 868 l 868 347 l 1042 347 m 521 1736 l 521 1910 l 347 1910 l 347 1736 l 521 1736 m 694 1910 l 694 2083 l 521 2083 l 521 1910 l 694 1910 m 868 1736 l 868 1910 l 694 1910 l 694 1736 l 868 1736 m 1042 1910 l 1042 2083 l 868 2083 l 868 1910 l 1042 1910 m 347 1563 l 347 1389 l 868 1389 l 868 1563 l 347 1563 m 694 174 l 694 0 l 174 0 l 174 174 l 0 174 l 0 1389 l 174 1389 l 174 1910 l 347 1910 l 347 2083 l 521 2083 l 521 2257 l 1215 2257 l 1215 2083 l 1389 2083 l 1389 1736 l 1215 1736 l 1215 1389 l 1389 1389 l 1389 0 l 868 0 l 868 174 l 694 174 z "},"Õ":{"ha":1389,"x_min":0,"x_max":1389,"o":"m 868 347 l 868 521 l 347 521 l 347 347 l 868 347 m 521 1736 l 521 1910 l 347 1910 l 347 1736 l 521 1736 m 694 1910 l 694 2083 l 521 2083 l 521 1910 l 694 1910 m 868 1736 l 868 1910 l 694 1910 l 694 1736 l 868 1736 m 1042 1910 l 1042 2083 l 868 2083 l 868 1910 l 1042 1910 m 347 1563 l 174 1563 l 174 521 l 347 521 l 347 1563 m 868 1563 l 868 521 l 1042 521 l 1042 1563 l 868 1563 m 1389 1736 l 1215 1736 l 1215 1563 l 1389 1563 l 1389 174 l 1215 174 l 1215 0 l 347 0 l 347 174 l 174 174 l 174 347 l 0 347 l 0 1563 l 174 1563 l 174 1910 l 347 1910 l 347 2083 l 521 2083 l 521 2257 l 1215 2257 l 1215 2083 l 1389 2083 l 1389 1736 z "},"Œ":{"ha":1910,"x_min":0,"x_max":1910,"o":"m 174 521 l 347 521 l 347 1389 l 174 1389 l 174 521 m 868 347 l 868 521 l 347 521 l 347 347 l 868 347 m 868 1389 l 868 1563 l 347 1563 l 347 1389 l 868 1389 m 1563 1389 l 1563 1563 l 1042 1563 l 1042 1389 l 1563 1389 m 1563 868 l 1563 1042 l 1042 1042 l 1042 1389 l 868 1389 l 868 521 l 1042 521 l 1042 868 l 1563 868 m 1563 347 l 1563 521 l 1042 521 l 1042 347 l 1563 347 m 347 0 l 347 174 l 174 174 l 174 347 l 0 347 l 0 1389 l 174 1389 l 174 1563 l 347 1563 l 347 1736 l 1563 1736 l 1563 1563 l 1736 1563 l 1736 1389 l 1910 1389 l 1910 0 l 347 0 z "},"œ":{"ha":2083,"x_min":0,"x_max":2083,"o":"m 347 521 l 347 1042 l 174 1042 l 174 521 l 347 521 m 868 1042 l 868 1215 l 347 1215 l 347 1042 l 868 1042 m 347 347 l 868 347 l 868 521 l 347 521 l 347 347 m 1563 1042 l 1563 1215 l 1042 1215 l 1042 1042 l 1563 1042 m 1736 694 l 1736 1042 l 1563 1042 l 1563 868 l 1042 868 l 1042 1042 l 868 1042 l 868 521 l 1042 521 l 1042 694 l 1736 694 m 1736 347 l 1736 521 l 1042 521 l 1042 347 l 1736 347 m 1736 1215 l 1910 1215 l 1910 1042 l 2083 1042 l 2083 0 l 347 0 l 347 174 l 174 174 l 174 347 l 0 347 l 0 1042 l 174 1042 l 174 1215 l 347 1215 l 347 1389 l 1736 1389 l 1736 1215 z "},"–":{"ha":868,"x_min":0,"x_max":868,"o":"m 521 868 l 521 1042 l 174 1042 l 174 868 l 521 868 m 868 521 l 174 521 l 174 694 l 0 694 l 0 1042 l 174 1042 l 174 1215 l 694 1215 l 694 1042 l 868 1042 l 868 521 z "},"—":{"ha":1389,"x_min":0,"x_max":1389,"o":"m 1042 868 l 1042 1042 l 174 1042 l 174 868 l 1042 868 m 1389 521 l 174 521 l 174 694 l 0 694 l 0 1042 l 174 1042 l 174 1215 l 1215 1215 l 1215 1042 l 1389 1042 l 1389 521 z "},"“":{"ha":1042,"x_min":0,"x_max":1042,"o":"m 521 1215 l 694 1215 l 694 1563 l 521 1563 l 521 1215 m 174 1215 l 347 1215 l 347 1563 l 174 1563 l 174 1215 m 1042 868 l 174 868 l 174 1042 l 0 1042 l 0 1563 l 174 1563 l 174 1736 l 868 1736 l 868 1563 l 1042 1563 l 1042 868 z "},"”":{"ha":1042,"x_min":0,"x_max":1042,"o":"m 521 1215 l 694 1215 l 694 1563 l 521 1563 l 521 1215 m 174 1215 l 347 1215 l 347 1563 l 174 1563 l 174 1215 m 1042 868 l 174 868 l 174 1042 l 0 1042 l 0 1563 l 174 1563 l 174 1736 l 868 1736 l 868 1563 l 1042 1563 l 1042 868 z "},"‘":{"ha":694,"x_min":0,"x_max":694,"o":"m 174 1215 l 347 1215 l 347 1563 l 174 1563 l 174 1215 m 694 868 l 174 868 l 174 1042 l 0 1042 l 0 1563 l 174 1563 l 174 1736 l 521 1736 l 521 1563 l 694 1563 l 694 868 z "},"’":{"ha":694,"x_min":0,"x_max":694,"o":"m 174 1215 l 347 1215 l 347 1563 l 174 1563 l 174 1215 m 694 868 l 174 868 l 174 1042 l 0 1042 l 0 1563 l 174 1563 l 174 1736 l 521 1736 l 521 1563 l 694 1563 l 694 868 z "},"÷":{"ha":1042,"x_min":0,"x_max":1042,"o":"m 521 521 l 521 694 l 347 694 l 347 521 l 521 521 m 521 1215 l 521 1389 l 347 1389 l 347 1215 l 521 1215 m 694 1042 l 174 1042 l 174 868 l 694 868 l 694 1042 m 868 174 l 347 174 l 347 347 l 174 347 l 174 694 l 0 694 l 0 1042 l 174 1042 l 174 1389 l 347 1389 l 347 1563 l 694 1563 l 694 1389 l 868 1389 l 868 1042 l 1042 1042 l 1042 521 l 868 521 l 868 174 z "},"ÿ":{"ha":1389,"x_min":0,"x_max":1389,"o":"m 347 0 l 347 -174 l 868 -174 l 868 0 l 347 0 m 521 1389 l 521 1563 l 347 1563 l 347 1389 l 521 1389 m 868 1389 l 868 1563 l 694 1563 l 694 1389 l 868 1389 m 1042 1215 l 868 1215 l 868 521 l 347 521 l 347 347 l 868 347 l 868 0 l 1042 0 l 1042 1215 m 174 1215 l 174 1563 l 347 1563 l 347 1736 l 1042 1736 l 1042 1563 l 1215 1563 l 1215 1215 l 1389 1215 l 1389 -174 l 1215 -174 l 1215 -347 l 1042 -347 l 1042 -521 l 347 -521 l 347 -347 l 174 -347 l 174 0 l 347 0 l 347 174 l 174 174 l 174 347 l 0 347 l 0 1215 l 174 1215 m 347 1215 l 174 1215 l 174 521 l 347 521 l 347 1215 z "},"Ÿ":{"ha":1736,"x_min":0,"x_max":1736,"o":"m 347 1215 l 347 1563 l 174 1563 l 174 1215 l 347 1215 m 521 1042 l 521 1215 l 347 1215 l 347 1042 l 521 1042 m 1215 1042 l 1215 1215 l 1042 1215 l 1042 1042 l 1215 1042 m 694 347 l 868 347 l 868 868 l 1042 868 l 1042 1042 l 521 1042 l 521 868 l 694 868 l 694 347 m 694 1736 l 694 1910 l 521 1910 l 521 1736 l 694 1736 m 1042 1736 l 1042 1910 l 868 1910 l 868 1736 l 1042 1736 m 1389 1563 l 1215 1563 l 1215 1215 l 1389 1215 l 1389 1563 m 1215 1910 l 1389 1910 l 1389 1736 l 1563 1736 l 1563 1563 l 1736 1563 l 1736 1042 l 1563 1042 l 1563 868 l 1389 868 l 1389 694 l 1215 694 l 1215 0 l 694 0 l 694 174 l 521 174 l 521 694 l 347 694 l 347 868 l 174 868 l 174 1042 l 0 1042 l 0 1563 l 174 1563 l 174 1736 l 347 1736 l 347 1910 l 521 1910 l 521 2083 l 1215 2083 l 1215 1910 z "},"⁄":{"ha":1215,"x_min":0,"x_max":1215,"o":"m 694 1389 l 868 1389 l 868 1736 l 694 1736 l 694 1389 m 521 1042 l 694 1042 l 694 1389 l 521 1389 l 521 1042 m 347 694 l 521 694 l 521 1042 l 347 1042 l 347 694 m 174 694 l 174 347 l 347 347 l 347 694 l 174 694 m 1215 1215 l 1042 1215 l 1042 868 l 868 868 l 868 521 l 694 521 l 694 174 l 521 174 l 521 0 l 174 0 l 174 174 l 0 174 l 0 694 l 174 694 l 174 1042 l 347 1042 l 347 1389 l 521 1389 l 521 1736 l 694 1736 l 694 1910 l 1042 1910 l 1042 1736 l 1215 1736 l 1215 1215 z "},"‹":{"ha":868,"x_min":0,"x_max":868,"o":"m 347 868 l 521 868 l 521 1042 l 347 1042 l 347 868 m 174 694 l 347 694 l 347 868 l 174 868 l 174 694 m 521 521 l 521 694 l 347 694 l 347 521 l 521 521 m 868 174 l 347 174 l 347 347 l 174 347 l 174 521 l 0 521 l 0 868 l 174 868 l 174 1042 l 347 1042 l 347 1215 l 694 1215 l 694 1042 l 868 1042 l 868 174 z "},"›":{"ha":868,"x_min":0,"x_max":868,"o":"m 347 868 l 347 1042 l 174 1042 l 174 868 l 347 868 m 521 694 l 521 868 l 347 868 l 347 694 l 521 694 m 174 521 l 347 521 l 347 694 l 174 694 l 174 521 m 868 521 l 694 521 l 694 347 l 521 347 l 521 174 l 174 174 l 174 347 l 0 347 l 0 1042 l 174 1042 l 174 1215 l 521 1215 l 521 1042 l 694 1042 l 694 868 l 868 868 l 868 521 z "},"ﬁ":{"ha":1389,"x_min":0,"x_max":1389,"o":"m 694 1389 l 694 1563 l 521 1563 l 521 1389 l 694 1389 m 868 1042 l 868 347 l 1042 347 l 1042 1215 l 521 1215 l 521 1389 l 347 1389 l 347 1215 l 174 1215 l 174 1042 l 347 1042 l 347 347 l 521 347 l 521 1042 l 868 1042 m 868 1563 l 868 1389 l 1042 1389 l 1042 1563 l 868 1563 m 1215 1563 l 1389 1563 l 1389 0 l 347 0 l 347 174 l 174 174 l 174 868 l 0 868 l 0 1215 l 174 1215 l 174 1389 l 347 1389 l 347 1563 l 521 1563 l 521 1736 l 1215 1736 l 1215 1563 z "},"ﬂ":{"ha":1389,"x_min":0,"x_max":1389,"o":"m 521 1389 l 347 1389 l 347 1215 l 174 1215 l 174 1042 l 347 1042 l 347 347 l 521 347 l 521 1042 l 694 1042 l 694 1215 l 521 1215 l 521 1389 m 868 1389 l 868 347 l 1042 347 l 1042 1563 l 521 1563 l 521 1389 l 868 1389 m 1215 1563 l 1389 1563 l 1389 0 l 347 0 l 347 174 l 174 174 l 174 868 l 0 868 l 0 1215 l 174 1215 l 174 1389 l 347 1389 l 347 1563 l 521 1563 l 521 1736 l 1215 1736 l 1215 1563 z "},"·":{"ha":694,"x_min":0,"x_max":694,"o":"m 347 868 l 347 1042 l 174 1042 l 174 868 l 347 868 m 694 521 l 174 521 l 174 694 l 0 694 l 0 1042 l 174 1042 l 174 1215 l 521 1215 l 521 1042 l 694 1042 l 694 521 z "},"∙":{"ha":694,"x_min":0,"x_max":694,"o":"m 347 868 l 347 1042 l 174 1042 l 174 868 l 347 868 m 694 521 l 174 521 l 174 694 l 0 694 l 0 1042 l 174 1042 l 174 1215 l 521 1215 l 521 1042 l 694 1042 l 694 521 z "},"‚":{"ha":694,"x_min":0,"x_max":694,"o":"m 174 0 l 347 0 l 347 347 l 174 347 l 174 0 m 694 -347 l 174 -347 l 174 -174 l 0 -174 l 0 347 l 174 347 l 174 521 l 521 521 l 521 347 l 694 347 l 694 -347 z "},"„":{"ha":1042,"x_min":0,"x_max":1042,"o":"m 521 0 l 694 0 l 694 347 l 521 347 l 521 0 m 174 0 l 347 0 l 347 347 l 174 347 l 174 0 m 1042 -347 l 174 -347 l 174 -174 l 0 -174 l 0 347 l 174 347 l 174 521 l 868 521 l 868 347 l 1042 347 l 1042 -347 z "},"Â":{"ha":1389,"x_min":0,"x_max":1389,"o":"m 1042 347 l 1042 1389 l 868 1389 l 868 1042 l 347 1042 l 347 1389 l 174 1389 l 174 347 l 347 347 l 347 868 l 868 868 l 868 347 l 1042 347 m 521 1736 l 521 1910 l 347 1910 l 347 1736 l 521 1736 m 694 1910 l 694 2083 l 521 2083 l 521 1910 l 694 1910 m 868 1736 l 868 1910 l 694 1910 l 694 1736 l 868 1736 m 347 1563 l 347 1389 l 868 1389 l 868 1563 l 347 1563 m 694 174 l 694 0 l 174 0 l 174 174 l 0 174 l 0 1389 l 174 1389 l 174 1910 l 347 1910 l 347 2083 l 521 2083 l 521 2257 l 868 2257 l 868 2083 l 1042 2083 l 1042 1910 l 1215 1910 l 1215 1389 l 1389 1389 l 1389 0 l 868 0 l 868 174 l 694 174 z "},"Ê":{"ha":1215,"x_min":0,"x_max":1215,"o":"m 521 1736 l 521 1910 l 347 1910 l 347 1736 l 521 1736 m 694 1910 l 694 2083 l 521 2083 l 521 1910 l 694 1910 m 868 1736 l 868 1910 l 694 1910 l 694 1736 l 868 1736 m 174 1563 l 174 347 l 868 347 l 868 521 l 347 521 l 347 868 l 868 868 l 868 1042 l 347 1042 l 347 1389 l 868 1389 l 868 1563 l 174 1563 m 1042 694 l 1042 521 l 1215 521 l 1215 0 l 174 0 l 174 174 l 0 174 l 0 1563 l 174 1563 l 174 1910 l 347 1910 l 347 2083 l 521 2083 l 521 2257 l 868 2257 l 868 2083 l 1042 2083 l 1042 1910 l 1215 1910 l 1215 1215 l 1042 1215 l 1042 1042 l 1215 1042 l 1215 694 l 1042 694 z "},"Á":{"ha":1389,"x_min":0,"x_max":1389,"o":"m 1042 347 l 1042 1389 l 868 1389 l 868 1042 l 347 1042 l 347 1389 l 174 1389 l 174 347 l 347 347 l 347 868 l 868 868 l 868 347 l 1042 347 m 868 1910 l 868 2083 l 694 2083 l 694 1910 l 868 1910 m 521 1736 l 694 1736 l 694 1910 l 521 1910 l 521 1736 m 868 1563 l 347 1563 l 347 1389 l 868 1389 l 868 1563 m 694 174 l 694 0 l 174 0 l 174 174 l 0 174 l 0 1389 l 174 1389 l 174 1563 l 347 1563 l 347 1910 l 521 1910 l 521 2083 l 694 2083 l 694 2257 l 1042 2257 l 1042 2083 l 1215 2083 l 1215 1736 l 1042 1736 l 1042 1563 l 1215 1563 l 1215 1389 l 1389 1389 l 1389 0 l 868 0 l 868 174 l 694 174 z "},"Ë":{"ha":1215,"x_min":0,"x_max":1215,"o":"m 521 1736 l 521 1910 l 347 1910 l 347 1736 l 521 1736 m 868 1736 l 868 1910 l 694 1910 l 694 1736 l 868 1736 m 174 1563 l 174 347 l 868 347 l 868 521 l 347 521 l 347 868 l 868 868 l 868 1042 l 347 1042 l 347 1389 l 868 1389 l 868 1563 l 174 1563 m 1042 694 l 1042 521 l 1215 521 l 1215 0 l 174 0 l 174 174 l 0 174 l 0 1563 l 174 1563 l 174 1910 l 347 1910 l 347 2083 l 1042 2083 l 1042 1910 l 1215 1910 l 1215 1215 l 1042 1215 l 1042 1042 l 1215 1042 l 1215 694 l 1042 694 z "},"È":{"ha":1215,"x_min":0,"x_max":1215,"o":"m 521 1910 l 521 2083 l 347 2083 l 347 1910 l 521 1910 m 694 1736 l 694 1910 l 521 1910 l 521 1736 l 694 1736 m 868 1563 l 174 1563 l 174 347 l 868 347 l 868 521 l 347 521 l 347 868 l 868 868 l 868 1042 l 347 1042 l 347 1389 l 868 1389 l 868 1563 m 1042 694 l 1042 521 l 1215 521 l 1215 0 l 174 0 l 174 174 l 0 174 l 0 1563 l 174 1563 l 174 2083 l 347 2083 l 347 2257 l 694 2257 l 694 2083 l 868 2083 l 868 1910 l 1042 1910 l 1042 1563 l 1215 1563 l 1215 1215 l 1042 1215 l 1042 1042 l 1215 1042 l 1215 694 l 1042 694 z "},"Í":{"ha":694,"x_min":0,"x_max":868,"o":"m 521 1910 l 521 2083 l 347 2083 l 347 1910 l 521 1910 m 347 1563 l 174 1563 l 174 347 l 347 347 l 347 1563 m 174 1736 l 347 1736 l 347 1910 l 174 1910 l 174 1736 m 868 1736 l 694 1736 l 694 0 l 174 0 l 174 174 l 0 174 l 0 1910 l 174 1910 l 174 2083 l 347 2083 l 347 2257 l 694 2257 l 694 2083 l 868 2083 l 868 1736 z "},"Î":{"ha":694,"x_min":-174,"x_max":868,"o":"m 174 1736 l 174 1910 l 0 1910 l 0 1736 l 174 1736 m 347 1910 l 347 2083 l 174 2083 l 174 1910 l 347 1910 m 521 1736 l 521 1910 l 347 1910 l 347 1736 l 521 1736 m 0 1563 l -174 1563 l -174 1910 l 0 1910 l 0 2083 l 174 2083 l 174 2257 l 521 2257 l 521 2083 l 694 2083 l 694 1910 l 868 1910 l 868 1563 l 694 1563 l 694 0 l 174 0 l 174 174 l 0 174 l 0 1563 m 347 1563 l 174 1563 l 174 347 l 347 347 l 347 1563 z "},"Ï":{"ha":694,"x_min":-174,"x_max":868,"o":"m 174 1736 l 174 1910 l 0 1910 l 0 1736 l 174 1736 m 521 1736 l 521 1910 l 347 1910 l 347 1736 l 521 1736 m 347 1563 l 174 1563 l 174 347 l 347 347 l 347 1563 m 0 1563 l -174 1563 l -174 1910 l 0 1910 l 0 2083 l 694 2083 l 694 1910 l 868 1910 l 868 1563 l 694 1563 l 694 0 l 174 0 l 174 174 l 0 174 l 0 1563 z "},"Ì":{"ha":694,"x_min":-174,"x_max":694,"o":"m 174 1910 l 174 2083 l 0 2083 l 0 1910 l 174 1910 m 347 1563 l 174 1563 l 174 347 l 347 347 l 347 1563 m 347 1736 l 347 1910 l 174 1910 l 174 1736 l 347 1736 m 521 1910 l 694 1910 l 694 0 l 174 0 l 174 174 l 0 174 l 0 1736 l -174 1736 l -174 2083 l 0 2083 l 0 2257 l 347 2257 l 347 2083 l 521 2083 l 521 1910 z "},"Ó":{"ha":1389,"x_min":0,"x_max":1389,"o":"m 174 521 l 347 521 l 347 1389 l 174 1389 l 174 521 m 868 347 l 868 521 l 347 521 l 347 347 l 868 347 m 1042 1389 l 868 1389 l 868 521 l 1042 521 l 1042 1389 m 868 1910 l 868 2083 l 694 2083 l 694 1910 l 868 1910 m 521 1736 l 694 1736 l 694 1910 l 521 1910 l 521 1736 m 868 1563 l 347 1563 l 347 1389 l 868 1389 l 868 1563 m 1215 1736 l 1042 1736 l 1042 1563 l 1215 1563 l 1215 1389 l 1389 1389 l 1389 174 l 1215 174 l 1215 0 l 347 0 l 347 174 l 174 174 l 174 347 l 0 347 l 0 1389 l 174 1389 l 174 1563 l 347 1563 l 347 1910 l 521 1910 l 521 2083 l 694 2083 l 694 2257 l 1042 2257 l 1042 2083 l 1215 2083 l 1215 1736 z "},"Ô":{"ha":1389,"x_min":0,"x_max":1389,"o":"m 174 521 l 347 521 l 347 1389 l 174 1389 l 174 521 m 868 347 l 868 521 l 347 521 l 347 347 l 868 347 m 1042 1389 l 868 1389 l 868 521 l 1042 521 l 1042 1389 m 521 1736 l 521 1910 l 347 1910 l 347 1736 l 521 1736 m 694 1910 l 694 2083 l 521 2083 l 521 1910 l 694 1910 m 868 1736 l 868 1910 l 694 1910 l 694 1736 l 868 1736 m 174 1910 l 347 1910 l 347 2083 l 521 2083 l 521 2257 l 868 2257 l 868 2083 l 1042 2083 l 1042 1910 l 1215 1910 l 1215 1389 l 1389 1389 l 1389 174 l 1215 174 l 1215 0 l 347 0 l 347 174 l 174 174 l 174 347 l 0 347 l 0 1389 l 174 1389 l 174 1910 m 347 1563 l 347 1389 l 868 1389 l 868 1563 l 347 1563 z "},"Ò":{"ha":1389,"x_min":0,"x_max":1389,"o":"m 174 521 l 347 521 l 347 1389 l 174 1389 l 174 521 m 868 347 l 868 521 l 347 521 l 347 347 l 868 347 m 1042 1389 l 868 1389 l 868 521 l 1042 521 l 1042 1389 m 521 1910 l 521 2083 l 347 2083 l 347 1910 l 521 1910 m 694 1736 l 694 1910 l 521 1910 l 521 1736 l 694 1736 m 868 1563 l 347 1563 l 347 1389 l 868 1389 l 868 1563 m 868 1910 l 1042 1910 l 1042 1563 l 1215 1563 l 1215 1389 l 1389 1389 l 1389 174 l 1215 174 l 1215 0 l 347 0 l 347 174 l 174 174 l 174 347 l 0 347 l 0 1389 l 174 1389 l 174 1563 l 347 1563 l 347 1736 l 174 1736 l 174 2083 l 347 2083 l 347 2257 l 694 2257 l 694 2083 l 868 2083 l 868 1910 z "},"Ú":{"ha":1389,"x_min":0,"x_max":1389,"o":"m 174 521 l 347 521 l 347 1563 l 174 1563 l 174 521 m 868 347 l 868 521 l 347 521 l 347 347 l 868 347 m 868 1910 l 868 2083 l 694 2083 l 694 1910 l 868 1910 m 521 1736 l 694 1736 l 694 1910 l 521 1910 l 521 1736 m 1042 1563 l 868 1563 l 868 521 l 1042 521 l 1042 1563 m 1215 1563 l 1389 1563 l 1389 174 l 1215 174 l 1215 0 l 347 0 l 347 174 l 174 174 l 174 347 l 0 347 l 0 1563 l 174 1563 l 174 1736 l 347 1736 l 347 1910 l 521 1910 l 521 2083 l 694 2083 l 694 2257 l 1042 2257 l 1042 2083 l 1215 2083 l 1215 1563 z "},"Û":{"ha":1389,"x_min":0,"x_max":1389,"o":"m 868 347 l 868 521 l 347 521 l 347 347 l 868 347 m 521 1736 l 521 1910 l 347 1910 l 347 1736 l 521 1736 m 694 1910 l 694 2083 l 521 2083 l 521 1910 l 694 1910 m 868 1736 l 868 1910 l 694 1910 l 694 1736 l 868 1736 m 1042 1563 l 868 1563 l 868 521 l 1042 521 l 1042 1563 m 174 1563 l 174 1910 l 347 1910 l 347 2083 l 521 2083 l 521 2257 l 868 2257 l 868 2083 l 1042 2083 l 1042 1910 l 1215 1910 l 1215 1563 l 1389 1563 l 1389 174 l 1215 174 l 1215 0 l 347 0 l 347 174 l 174 174 l 174 347 l 0 347 l 0 1563 l 174 1563 m 347 1563 l 174 1563 l 174 521 l 347 521 l 347 1563 z "},"Ù":{"ha":1389,"x_min":0,"x_max":1389,"o":"m 174 521 l 347 521 l 347 1563 l 174 1563 l 174 521 m 868 347 l 868 521 l 347 521 l 347 347 l 868 347 m 521 1910 l 521 2083 l 347 2083 l 347 1910 l 521 1910 m 694 1736 l 694 1910 l 521 1910 l 521 1736 l 694 1736 m 1042 1563 l 868 1563 l 868 521 l 1042 521 l 1042 1563 m 868 1910 l 1042 1910 l 1042 1736 l 1215 1736 l 1215 1563 l 1389 1563 l 1389 174 l 1215 174 l 1215 0 l 347 0 l 347 174 l 174 174 l 174 347 l 0 347 l 0 1563 l 174 1563 l 174 2083 l 347 2083 l 347 2257 l 694 2257 l 694 2083 l 868 2083 l 868 1910 z "},"ı":{"ha":694,"x_min":0,"x_max":694,"o":"m 347 1215 l 174 1215 l 174 347 l 347 347 l 347 1215 m 521 1389 l 521 1215 l 694 1215 l 694 0 l 174 0 l 174 174 l 0 174 l 0 1389 l 521 1389 z "},"ˆ":{"ha":1042,"x_min":0,"x_max":1042,"o":"m 347 1215 l 347 1389 l 174 1389 l 174 1215 l 347 1215 m 521 1389 l 521 1563 l 347 1563 l 347 1389 l 521 1389 m 694 1215 l 694 1389 l 521 1389 l 521 1215 l 694 1215 m 1042 868 l 174 868 l 174 1042 l 0 1042 l 0 1389 l 174 1389 l 174 1563 l 347 1563 l 347 1736 l 694 1736 l 694 1563 l 868 1563 l 868 1389 l 1042 1389 l 1042 868 z "},"˜":{"ha":1215,"x_min":0,"x_max":1215,"o":"m 694 1389 l 868 1389 l 868 1563 l 694 1563 l 694 1389 m 347 1389 l 521 1389 l 521 1563 l 347 1563 l 347 1389 m 694 1215 l 694 1389 l 521 1389 l 521 1215 l 694 1215 m 347 1215 l 347 1389 l 174 1389 l 174 1215 l 347 1215 m 1042 868 l 174 868 l 174 1042 l 0 1042 l 0 1389 l 174 1389 l 174 1563 l 347 1563 l 347 1736 l 1042 1736 l 1042 1563 l 1215 1563 l 1215 1215 l 1042 1215 l 1042 868 z "},"¯":{"ha":1042,"x_min":0,"x_max":1042,"o":"m 694 1389 l 694 1563 l 174 1563 l 174 1389 l 694 1389 m 1042 1042 l 174 1042 l 174 1215 l 0 1215 l 0 1563 l 174 1563 l 174 1736 l 868 1736 l 868 1563 l 1042 1563 l 1042 1042 z "},"ˉ":{"ha":1042,"x_min":0,"x_max":1042,"o":"m 694 1389 l 694 1563 l 174 1563 l 174 1389 l 694 1389 m 1042 1042 l 174 1042 l 174 1215 l 0 1215 l 0 1563 l 174 1563 l 174 1736 l 868 1736 l 868 1563 l 1042 1563 l 1042 1042 z "},"˘":{"ha":1215,"x_min":0,"x_max":1215,"o":"m 347 1389 l 347 1563 l 174 1563 l 174 1389 l 347 1389 m 694 1215 l 694 1389 l 347 1389 l 347 1215 l 694 1215 m 868 1389 l 868 1563 l 694 1563 l 694 1389 l 868 1389 m 868 1042 l 868 868 l 347 868 l 347 1042 l 174 1042 l 174 1215 l 0 1215 l 0 1563 l 174 1563 l 174 1736 l 1042 1736 l 1042 1563 l 1215 1563 l 1215 1215 l 1042 1215 l 1042 1042 l 868 1042 z "},"˙":{"ha":694,"x_min":0,"x_max":694,"o":"m 347 1389 l 347 1563 l 174 1563 l 174 1389 l 347 1389 m 694 1042 l 174 1042 l 174 1215 l 0 1215 l 0 1563 l 174 1563 l 174 1736 l 521 1736 l 521 1563 l 694 1563 l 694 1042 z "},"˚":{"ha":1042,"x_min":0,"x_max":1042,"o":"m 0 1389 l 174 1389 l 174 1215 l 0 1215 l 0 1389 m 347 1389 l 521 1389 l 521 1215 l 347 1215 l 347 1389 m 174 1215 l 347 1215 l 347 1042 l 174 1042 l 174 1215 m 347 1042 l 521 1042 l 521 868 l 347 868 l 347 1042 m 521 1215 l 694 1215 l 694 1042 l 521 1042 l 521 1215 m 694 1389 l 868 1389 l 868 1215 l 694 1215 l 694 1389 m 521 1563 l 694 1563 l 694 1389 l 521 1389 l 521 1563 m 174 1563 l 347 1563 l 347 1389 l 174 1389 l 174 1563 m 347 1736 l 521 1736 l 521 1563 l 347 1563 l 347 1736 m 0 1215 l 174 1215 l 174 1042 l 0 1042 l 0 1215 m 174 1042 l 347 1042 l 347 868 l 174 868 l 174 1042 m 347 868 l 521 868 l 521 694 l 347 694 l 347 868 m 521 1042 l 694 1042 l 694 868 l 521 868 l 521 1042 m 694 1215 l 868 1215 l 868 1042 l 694 1042 l 694 1215 m 868 1389 l 1042 1389 l 1042 1215 l 868 1215 l 868 1389 m 694 1563 l 868 1563 l 868 1389 l 694 1389 l 694 1563 m 521 1736 l 694 1736 l 694 1563 l 521 1563 l 521 1736 m 521 868 l 694 868 l 694 694 l 521 694 l 521 868 m 694 1042 l 868 1042 l 868 868 l 694 868 l 694 1042 m 868 1215 l 1042 1215 l 1042 1042 l 868 1042 l 868 1215 z "},"¸":{"ha":1389,"x_min":0,"x_max":868,"o":"m 347 0 l 347 174 l 174 174 l 174 0 l 347 0 m 521 347 l 347 347 l 347 174 l 521 174 l 521 347 m 694 521 l 694 347 l 868 347 l 868 0 l 694 0 l 694 -174 l 521 -174 l 521 -347 l 174 -347 l 174 -174 l 0 -174 l 0 174 l 174 174 l 174 347 l 347 347 l 347 521 l 694 521 z "},"˝":{"ha":1042,"x_min":0,"x_max":1215,"o":"m 347 1215 l 347 1389 l 174 1389 l 174 1215 l 347 1215 m 694 1215 l 694 1389 l 521 1389 l 521 1215 l 694 1215 m 521 1563 l 347 1563 l 347 1389 l 521 1389 l 521 1563 m 868 1389 l 868 1563 l 694 1563 l 694 1389 l 868 1389 m 1042 1736 l 1042 1563 l 1215 1563 l 1215 1215 l 1042 1215 l 1042 1042 l 0 1042 l 0 1389 l 174 1389 l 174 1563 l 347 1563 l 347 1736 l 1042 1736 z "},"˛":{"ha":1389,"x_min":0,"x_max":1042,"o":"m 174 174 l 347 174 l 347 347 l 174 347 l 174 174 m 694 0 l 694 174 l 347 174 l 347 0 l 694 0 m 1042 -347 l 347 -347 l 347 -174 l 174 -174 l 174 0 l 0 0 l 0 347 l 174 347 l 174 521 l 521 521 l 521 347 l 868 347 l 868 174 l 1042 174 l 1042 -347 z "},"ˇ":{"ha":1042,"x_min":0,"x_max":1042,"o":"m 347 1389 l 347 1563 l 174 1563 l 174 1389 l 347 1389 m 521 1215 l 521 1389 l 347 1389 l 347 1215 l 521 1215 m 694 1389 l 694 1563 l 521 1563 l 521 1389 l 694 1389 m 694 1042 l 694 868 l 347 868 l 347 1042 l 174 1042 l 174 1215 l 0 1215 l 0 1563 l 174 1563 l 174 1736 l 868 1736 l 868 1563 l 1042 1563 l 1042 1215 l 868 1215 l 868 1042 l 694 1042 z "},"Š":{"ha":1389,"x_min":0,"x_max":1389,"o":"m 347 1042 l 347 1389 l 174 1389 l 174 1042 l 347 1042 m 868 868 l 868 1042 l 347 1042 l 347 868 l 868 868 m 868 521 l 1042 521 l 1042 868 l 868 868 l 868 521 m 174 521 l 174 347 l 868 347 l 868 521 l 174 521 m 521 1910 l 521 2083 l 347 2083 l 347 1910 l 521 1910 m 694 1736 l 694 1910 l 521 1910 l 521 1736 l 694 1736 m 868 1910 l 868 2083 l 694 2083 l 694 1910 l 868 1910 m 1042 1563 l 347 1563 l 347 1389 l 1042 1389 l 1042 1563 m 1215 1563 l 1389 1563 l 1389 1042 l 1215 1042 l 1215 868 l 1389 868 l 1389 174 l 1215 174 l 1215 0 l 174 0 l 174 174 l 0 174 l 0 521 l 174 521 l 174 694 l 0 694 l 0 1389 l 174 1389 l 174 1563 l 347 1563 l 347 1736 l 174 1736 l 174 2083 l 347 2083 l 347 2257 l 1042 2257 l 1042 2083 l 1215 2083 l 1215 1563 z "},"š":{"ha":1389,"x_min":0,"x_max":1389,"o":"m 174 868 l 347 868 l 347 1042 l 174 1042 l 174 868 m 868 694 l 868 868 l 347 868 l 347 694 l 868 694 m 868 521 l 1042 521 l 1042 694 l 868 694 l 868 521 m 174 347 l 868 347 l 868 521 l 174 521 l 174 347 m 521 1563 l 521 1736 l 347 1736 l 347 1563 l 521 1563 m 694 1389 l 694 1563 l 521 1563 l 521 1389 l 694 1389 m 868 1563 l 868 1736 l 694 1736 l 694 1563 l 868 1563 m 1042 1215 l 347 1215 l 347 1042 l 1042 1042 l 1042 1215 m 1215 1215 l 1389 1215 l 1389 868 l 1215 868 l 1215 694 l 1389 694 l 1389 347 l 1215 347 l 1215 174 l 1042 174 l 1042 0 l 174 0 l 174 174 l 0 174 l 0 521 l 174 521 l 174 694 l 0 694 l 0 1042 l 174 1042 l 174 1215 l 347 1215 l 347 1389 l 174 1389 l 174 1736 l 347 1736 l 347 1910 l 1042 1910 l 1042 1736 l 1215 1736 l 1215 1215 z "},"¦":{"ha":694,"x_min":0,"x_max":694,"o":"m 347 868 l 174 868 l 174 347 l 347 347 l 347 868 m 347 1042 l 347 1563 l 174 1563 l 174 1042 l 347 1042 m 521 1563 l 694 1563 l 694 0 l 174 0 l 174 174 l 0 174 l 0 1563 l 174 1563 l 174 1736 l 521 1736 l 521 1563 z "},"Ý":{"ha":1736,"x_min":0,"x_max":1736,"o":"m 347 1215 l 347 1563 l 174 1563 l 174 1215 l 347 1215 m 521 1042 l 521 1215 l 347 1215 l 347 1042 l 521 1042 m 1215 1042 l 1215 1215 l 1042 1215 l 1042 1042 l 1215 1042 m 694 347 l 868 347 l 868 868 l 1042 868 l 1042 1042 l 521 1042 l 521 868 l 694 868 l 694 347 m 1042 1736 l 1042 1910 l 868 1910 l 868 1736 l 1042 1736 m 694 1563 l 868 1563 l 868 1736 l 694 1736 l 694 1563 m 1215 1910 l 1389 1910 l 1389 1736 l 1563 1736 l 1563 1563 l 1736 1563 l 1736 1042 l 1563 1042 l 1563 868 l 1389 868 l 1389 694 l 1215 694 l 1215 0 l 694 0 l 694 174 l 521 174 l 521 694 l 347 694 l 347 868 l 174 868 l 174 1042 l 0 1042 l 0 1563 l 174 1563 l 174 1736 l 694 1736 l 694 1910 l 868 1910 l 868 2083 l 1215 2083 l 1215 1910 m 1389 1563 l 1215 1563 l 1215 1215 l 1389 1215 l 1389 1563 z "},"­":{"ha":1042,"x_min":0,"x_max":1042,"o":"m 694 868 l 694 1042 l 174 1042 l 174 868 l 694 868 m 1042 521 l 174 521 l 174 694 l 0 694 l 0 1042 l 174 1042 l 174 1215 l 868 1215 l 868 1042 l 1042 1042 l 1042 521 z "},"−":{"ha":1042,"x_min":0,"x_max":1042,"o":"m 694 868 l 694 1042 l 174 1042 l 174 868 l 694 868 m 1042 521 l 174 521 l 174 694 l 0 694 l 0 1042 l 174 1042 l 174 1215 l 868 1215 l 868 1042 l 1042 1042 l 1042 521 z "},"¹":{"ha":694,"x_min":-174,"x_max":694,"o":"m 174 1042 l 347 1042 l 347 1910 l 174 1910 l 174 1736 l 0 1736 l 0 1563 l 174 1563 l 174 1042 m 521 1910 l 694 1910 l 694 694 l 174 694 l 174 868 l 0 868 l 0 1389 l -174 1389 l -174 1736 l 0 1736 l 0 1910 l 174 1910 l 174 2083 l 521 2083 l 521 1910 z "},"²":{"ha":868,"x_min":-174,"x_max":868,"o":"m 347 1736 l 347 1910 l 0 1910 l 0 1736 l 347 1736 m 347 1563 l 521 1563 l 521 1736 l 347 1736 l 347 1563 m 174 1389 l 347 1389 l 347 1563 l 174 1563 l 174 1389 m 521 1042 l 521 1215 l 174 1215 l 174 1389 l 0 1389 l 0 1042 l 521 1042 m 694 1389 l 694 1215 l 868 1215 l 868 694 l 0 694 l 0 868 l -174 868 l -174 1389 l 0 1389 l 0 1563 l -174 1563 l -174 1910 l 0 1910 l 0 2083 l 521 2083 l 521 1910 l 694 1910 l 694 1736 l 868 1736 l 868 1389 l 694 1389 z "},"³":{"ha":868,"x_min":-174,"x_max":868,"o":"m 347 1736 l 347 1910 l 0 1910 l 0 1736 l 347 1736 m 347 1563 l 521 1563 l 521 1736 l 347 1736 l 347 1563 m 347 1215 l 521 1215 l 521 1389 l 347 1389 l 347 1215 m 174 1563 l 174 1389 l 347 1389 l 347 1563 l 174 1563 m 0 1215 l 0 1042 l 347 1042 l 347 1215 l 0 1215 m 868 1042 l 694 1042 l 694 868 l 521 868 l 521 694 l 0 694 l 0 868 l -174 868 l -174 1215 l 0 1215 l 0 1563 l -174 1563 l -174 1910 l 0 1910 l 0 2083 l 521 2083 l 521 1910 l 694 1910 l 694 1736 l 868 1736 l 868 1042 z "},"½":{"ha":2083,"x_min":0,"x_max":2083,"o":"m 347 1042 l 521 1042 l 521 1910 l 347 1910 l 347 1736 l 174 1736 l 174 1563 l 347 1563 l 347 1042 m 1042 1389 l 1215 1389 l 1215 1736 l 1042 1736 l 1042 1389 m 521 694 l 521 347 l 694 347 l 694 694 l 521 694 m 1042 1042 l 1042 1389 l 868 1389 l 868 1042 l 1042 1042 m 1736 347 l 1736 521 l 1389 521 l 1389 694 l 1563 694 l 1563 868 l 1736 868 l 1736 1042 l 1563 1042 l 1563 1215 l 1215 1215 l 1215 1042 l 1563 1042 l 1563 868 l 1389 868 l 1389 694 l 1215 694 l 1215 347 l 1736 347 m 694 1042 l 694 694 l 868 694 l 868 1042 l 694 1042 m 694 1910 l 868 1910 l 868 1736 l 1042 1736 l 1042 1910 l 1389 1910 l 1389 1736 l 1563 1736 l 1563 1389 l 1736 1389 l 1736 1215 l 1910 1215 l 1910 1042 l 2083 1042 l 2083 694 l 1910 694 l 1910 521 l 2083 521 l 2083 0 l 1215 0 l 1215 174 l 1042 174 l 1042 0 l 521 0 l 521 174 l 347 174 l 347 868 l 174 868 l 174 1389 l 0 1389 l 0 1736 l 174 1736 l 174 1910 l 347 1910 l 347 2083 l 694 2083 l 694 1910 z "},"¼":{"ha":2257,"x_min":0,"x_max":2257,"o":"m 347 1042 l 521 1042 l 521 1910 l 347 1910 l 347 1736 l 174 1736 l 174 1563 l 347 1563 l 347 1042 m 1042 1389 l 1215 1389 l 1215 1736 l 1042 1736 l 1042 1389 m 521 694 l 521 347 l 694 347 l 694 694 l 521 694 m 694 1042 l 694 694 l 868 694 l 868 1042 l 694 1042 m 1042 1042 l 1042 1389 l 868 1389 l 868 1042 l 1042 1042 m 1736 347 l 1910 347 l 1910 1215 l 1736 1215 l 1736 868 l 1389 868 l 1389 1215 l 1215 1215 l 1215 694 l 1736 694 l 1736 347 m 1563 347 l 1215 347 l 1215 521 l 1042 521 l 1042 0 l 521 0 l 521 174 l 347 174 l 347 868 l 174 868 l 174 1389 l 0 1389 l 0 1736 l 174 1736 l 174 1910 l 347 1910 l 347 2083 l 694 2083 l 694 1910 l 868 1910 l 868 1736 l 1042 1736 l 1042 1910 l 1389 1910 l 1389 1389 l 1563 1389 l 1563 1215 l 1736 1215 l 1736 1389 l 2083 1389 l 2083 1215 l 2257 1215 l 2257 0 l 1736 0 l 1736 174 l 1563 174 l 1563 347 z "},"¾":{"ha":2431,"x_min":0,"x_max":2431,"o":"m 1215 1389 l 1389 1389 l 1389 1736 l 1215 1736 l 1215 1389 m 694 694 l 694 347 l 868 347 l 868 694 l 694 694 m 868 1042 l 868 694 l 1042 694 l 1042 1042 l 868 1042 m 1215 1042 l 1215 1389 l 1042 1389 l 1042 1042 l 1215 1042 m 1910 347 l 2083 347 l 2083 1215 l 1910 1215 l 1910 868 l 1563 868 l 1563 1215 l 1389 1215 l 1389 694 l 1910 694 l 1910 347 m 521 1736 l 521 1910 l 174 1910 l 174 1736 l 521 1736 m 521 1563 l 694 1563 l 694 1736 l 521 1736 l 521 1563 m 347 1563 l 347 1389 l 521 1389 l 521 1563 l 347 1563 m 868 1736 l 1215 1736 l 1215 1910 l 1563 1910 l 1563 1389 l 1736 1389 l 1736 1215 l 1910 1215 l 1910 1389 l 2257 1389 l 2257 1215 l 2431 1215 l 2431 0 l 1910 0 l 1910 174 l 1736 174 l 1736 347 l 1389 347 l 1389 521 l 1215 521 l 1215 0 l 694 0 l 694 174 l 521 174 l 521 694 l 174 694 l 174 868 l 0 868 l 0 1215 l 174 1215 l 174 1563 l 0 1563 l 0 1910 l 174 1910 l 174 2083 l 694 2083 l 694 1910 l 868 1910 l 868 1736 m 521 1042 l 521 1215 l 174 1215 l 174 1042 l 521 1042 m 521 1215 l 694 1215 l 694 1389 l 521 1389 l 521 1215 z "}}}
